<svg width="36" height="36" viewBox="0 0 36 36" fill="none" xmlns="http://www.w3.org/2000/svg">
<path d="M32.4 21.7022V14.2977C32.7865 14.1995 33.1482 14.0219 33.4623 13.7762C33.7764 13.5305 34.0359 13.2221 34.2243 12.8706C34.4127 12.5192 34.5259 12.1323 34.5567 11.7348C34.5874 11.3372 34.5351 10.9375 34.403 10.5613C34.2709 10.1851 34.0619 9.84042 33.7893 9.54934C33.5168 9.25825 33.1866 9.02709 32.8199 8.87056C32.4531 8.71403 32.0578 8.63556 31.659 8.64014C31.2603 8.64472 30.8669 8.73225 30.5038 8.89716L28.217 6.03883C28.5933 5.54462 28.7979 4.94112 28.8 4.31998C28.8015 3.61955 28.5471 2.94269 28.0847 2.41659C27.6223 1.89049 26.9837 1.55137 26.2889 1.46295C25.5941 1.37452 24.8909 1.54289 24.3114 1.93641C23.732 2.32993 23.3162 2.9215 23.1422 3.59998H12.8577C12.7534 3.18718 12.5587 2.80273 12.2875 2.47445C12.0164 2.14617 11.6757 1.88226 11.29 1.70182C10.9044 1.52138 10.4835 1.42892 10.0577 1.43113C9.63192 1.43334 9.21197 1.53017 8.82822 1.71461C8.44447 1.89905 8.10652 2.16648 7.83881 2.49756C7.57111 2.82865 7.38034 3.2151 7.28033 3.62896C7.18031 4.04282 7.17354 4.47373 7.26051 4.89053C7.34748 5.30733 7.52601 5.69958 7.78318 6.03891L5.4964 8.89731C5.12702 8.72884 4.72596 8.64111 4.31998 8.63998C3.61956 8.63849 2.9427 8.89285 2.4166 9.35525C1.8905 9.81765 1.55137 10.4563 1.46295 11.1511C1.37453 11.8459 1.5429 12.5491 1.93641 13.1285C2.32993 13.708 2.92151 14.1237 3.59998 14.2977V21.7022C3.21349 21.8005 2.85167 21.9781 2.53756 22.2238C2.22345 22.4694 1.96393 22.7778 1.77551 23.1293C1.58709 23.4808 1.47389 23.8676 1.44313 24.2652C1.41237 24.6628 1.46471 25.0624 1.59683 25.4387C1.72895 25.815 1.93794 26.1596 2.21052 26.4507C2.4831 26.7418 2.81329 26.9729 3.18007 27.1295C3.54686 27.286 3.94221 27.3644 4.34097 27.3598C4.73973 27.3552 5.13316 27.2676 5.49622 27.1026L7.78311 29.9611C7.40676 30.4553 7.20201 31.0588 7.19998 31.68C7.1985 32.3804 7.45285 33.0573 7.91525 33.5834C8.37766 34.1095 9.01627 34.4486 9.71109 34.537C10.4059 34.6254 11.1091 34.4571 11.6885 34.0635C12.268 33.67 12.6838 33.0785 12.8577 32.4H23.1422C23.2465 32.8128 23.4413 33.1972 23.7124 33.5255C23.9836 33.8537 24.3243 34.1176 24.7099 34.298C25.0955 34.4785 25.5165 34.5709 25.9422 34.5687C26.368 34.5665 26.7879 34.4697 27.1716 34.2853C27.5554 34.1009 27.8933 33.8335 28.1611 33.5024C28.4288 33.1714 28.6196 32.7849 28.7196 32.3711C28.8196 31.9573 28.8265 31.5264 28.7395 31.1096C28.6526 30.6928 28.4741 30.3005 28.217 29.9612L30.5039 27.1029C30.8668 27.2669 31.2599 27.3537 31.6581 27.3578C32.0564 27.3618 32.4511 27.283 32.8173 27.1263C33.1835 26.9697 33.5131 26.7386 33.7851 26.4477C34.0572 26.1569 34.2659 25.8126 34.3978 25.4368C34.5297 25.061 34.5821 24.6619 34.5516 24.2648C34.521 23.8677 34.4082 23.4813 34.2203 23.1301C34.0325 22.7789 33.7736 22.4706 33.4603 22.2248C33.1469 21.979 32.7858 21.801 32.4 21.7022ZM25.92 28.8C25.5142 28.801 25.1133 28.8887 24.744 29.057L22.4573 26.1985C22.8189 25.724 23.0223 25.148 23.0389 24.5517C23.0555 23.9553 22.8844 23.3689 22.5498 22.875L25.9199 19.0837L29.2901 22.8752C28.9555 23.3691 28.7844 23.9556 28.8011 24.5519C28.8177 25.1482 29.0212 25.7242 29.3828 26.1986L27.0959 29.057C26.7267 28.8887 26.3258 28.8011 25.92 28.8ZM8.90379 29.0572L6.61687 26.1988C6.97861 25.7245 7.18219 25.1484 7.19888 24.5521C7.21556 23.9558 7.0445 23.3693 6.70986 22.8754L10.0801 19.084L13.4501 22.8753C13.1154 23.3692 12.9444 23.9557 12.9611 24.552C12.9778 25.1484 13.1814 25.7244 13.5431 26.1988L11.2563 29.0573C10.8874 28.8878 10.4861 28.8 10.0801 28.8C9.67402 28.8 9.27276 28.8877 8.90379 29.0572ZM5.62542 14.0725L9.11655 18L5.62538 21.9274C5.43915 21.831 5.24282 21.7555 5.03998 21.7022V14.2977C5.24283 14.2445 5.43917 14.1689 5.62542 14.0725ZM10.08 7.19998C10.486 7.19884 10.887 7.11111 11.2564 6.94265L13.5432 9.80105C13.1814 10.2755 12.9778 10.8515 12.9611 11.4479C12.9444 12.0443 13.1155 12.6309 13.4502 13.1248L10.0801 16.916L6.70991 13.1246C7.04452 12.6307 7.21556 12.0442 7.19888 11.4479C7.1822 10.8516 6.97865 10.2756 6.61696 9.80127L8.90386 6.94279C9.27315 7.11118 9.67412 7.19886 10.08 7.19998ZM27.0959 6.94301L29.3828 9.80141C29.0212 10.2759 28.8177 10.8519 28.8011 11.4482C28.7845 12.0445 28.9555 12.631 29.2902 13.1249L25.9199 16.9165L22.5498 13.1249C22.8844 12.631 23.0555 12.0445 23.0389 11.4482C23.0223 10.8519 22.8188 10.2759 22.4572 9.80141L24.7439 6.94279C25.1128 7.11221 25.5139 7.19994 25.9199 7.19998C26.3258 7.20001 26.727 7.11236 27.0959 6.94301ZM15.84 12.96C15.5552 12.96 15.2768 12.8755 15.04 12.7173C14.8032 12.5591 14.6186 12.3342 14.5096 12.071C14.4006 11.8079 14.3721 11.5184 14.4277 11.239C14.4832 10.9597 14.6204 10.7031 14.8217 10.5017C15.0231 10.3004 15.2797 10.1632 15.5591 10.1076C15.8384 10.0521 16.1279 10.0806 16.391 10.1896C16.6542 10.2986 16.8791 10.4831 17.0373 10.72C17.1955 10.9568 17.28 11.2352 17.28 11.52C17.2796 11.9018 17.1278 12.2678 16.8578 12.5378C16.5878 12.8078 16.2218 12.9596 15.84 12.96ZM14.5348 14.0726C14.7209 14.169 14.9172 14.2445 15.12 14.2977V21.7022C14.9172 21.7555 14.7208 21.831 14.5346 21.9274L11.0436 18L14.5348 14.0726ZM14.4 24.48C14.4 24.1952 14.4844 23.9168 14.6427 23.68C14.8009 23.4431 15.0258 23.2586 15.2889 23.1496C15.552 23.0406 15.8416 23.0121 16.1209 23.0676C16.4002 23.1232 16.6568 23.2604 16.8582 23.4617C17.0596 23.6631 17.1968 23.9197 17.2523 24.199C17.3079 24.4784 17.2794 24.7679 17.1704 25.031C17.0614 25.2942 16.8768 25.5191 16.64 25.6773C16.4032 25.8355 16.1248 25.92 15.84 25.92C15.4582 25.9196 15.0921 25.7678 14.8222 25.4978C14.5522 25.2278 14.4004 24.8618 14.4 24.48ZM16.56 21.7022V14.2977C17.119 14.1519 17.6209 13.8406 18 13.4046C18.3791 13.8406 18.881 14.1519 19.44 14.2977V21.7022C18.881 21.8481 18.3791 22.1594 18 22.5953C17.6209 22.1594 17.119 21.8481 16.56 21.7022ZM21.6 11.52C21.6 11.8048 21.5155 12.0832 21.3573 12.32C21.1991 12.5568 20.9742 12.7414 20.711 12.8504C20.4479 12.9594 20.1584 12.9879 19.8791 12.9323C19.5997 12.8767 19.3431 12.7396 19.1418 12.5382C18.9404 12.3368 18.8032 12.0802 18.7477 11.8009C18.6921 11.5216 18.7206 11.232 18.8296 10.9689C18.9386 10.7058 19.1232 10.4809 19.36 10.3227C19.5968 10.1644 19.8752 10.08 20.16 10.08C20.5418 10.0804 20.9078 10.2323 21.1777 10.5022C21.4477 10.7722 21.5995 11.1382 21.6 11.52ZM20.16 23.04C20.4448 23.04 20.7232 23.1244 20.96 23.2827C21.1968 23.4409 21.3814 23.6658 21.4904 23.9289C21.5994 24.192 21.6279 24.4816 21.5723 24.7609C21.5168 25.0402 21.3796 25.2968 21.1782 25.4982C20.9768 25.6996 20.7202 25.8367 20.4409 25.8923C20.1616 25.9479 19.872 25.9194 19.6089 25.8104C19.3458 25.7014 19.1209 25.5168 18.9627 25.28C18.8044 25.0432 18.72 24.7648 18.72 24.48C18.7204 24.0982 18.8723 23.7322 19.1422 23.4622C19.4122 23.1923 19.7782 23.0404 20.16 23.04ZM21.4656 21.9275C21.2793 21.831 21.0829 21.7554 20.88 21.7022V14.2977C21.083 14.2445 21.2794 14.1689 21.4657 14.0724L24.9567 18L21.4656 21.9275ZM23.6228 6.03855L21.3361 8.89716C20.7754 8.64048 20.1464 8.57368 19.5443 8.70689C18.9422 8.84011 18.4 9.16606 18 9.63531C17.5999 9.16606 17.0577 8.84011 16.4557 8.70689C15.8536 8.57368 15.2245 8.64048 14.6639 8.89716L12.3769 6.03869C12.6009 5.74036 12.7642 5.40108 12.8577 5.03998H23.1422C23.2357 5.40101 23.3989 5.74025 23.6228 6.03855ZM12.3769 29.9613L14.6637 27.1026C15.2244 27.3594 15.8535 27.4263 16.4556 27.2931C17.0577 27.1599 17.5999 26.8339 18 26.3646C18.4001 26.8339 18.9423 27.1598 19.5444 27.2931C20.1465 27.4263 20.7756 27.3595 21.3362 27.1028L23.6229 29.9613C23.399 30.2596 23.2357 30.5989 23.1422 30.96H12.8577C12.7642 30.5989 12.6009 30.2596 12.3769 29.9613ZM30.3741 21.9277L26.8831 18L30.3743 14.0724C30.5606 14.1689 30.757 14.2445 30.96 14.2977V21.7022C30.757 21.7555 30.5605 21.8311 30.3741 21.9277ZM33.12 11.52C33.12 11.8048 33.0355 12.0832 32.8773 12.32C32.7191 12.5568 32.4942 12.7414 32.231 12.8504C31.9679 12.9594 31.6784 12.9879 31.3991 12.9323C31.1197 12.8767 30.8631 12.7396 30.6618 12.5382C30.4604 12.3368 30.3232 12.0802 30.2677 11.8009C30.2121 11.5216 30.2406 11.232 30.3496 10.9689C30.4586 10.7058 30.6432 10.4809 30.88 10.3227C31.1168 10.1644 31.3952 10.08 31.68 10.08C32.0618 10.0804 32.4278 10.2323 32.6977 10.5022C32.9677 10.7722 33.1195 11.1382 33.12 11.52ZM25.92 2.87998C26.2048 2.87998 26.4832 2.96443 26.72 3.12266C26.9568 3.28089 27.1414 3.50579 27.2504 3.76891C27.3594 4.03204 27.3879 4.32157 27.3323 4.60091C27.2768 4.88024 27.1396 5.13682 26.9382 5.33821C26.7368 5.5396 26.4802 5.67675 26.2009 5.73231C25.9216 5.78787 25.632 5.75935 25.3689 5.65036C25.1058 5.54137 24.8809 5.35681 24.7227 5.12C24.5644 4.88319 24.48 4.60478 24.48 4.31998C24.4804 3.9382 24.6323 3.57219 24.9022 3.30223C25.1722 3.03228 25.5382 2.88042 25.92 2.87998ZM10.08 2.87998C10.3648 2.87998 10.6432 2.96443 10.88 3.12266C11.1168 3.28089 11.3014 3.50579 11.4104 3.76891C11.5194 4.03204 11.5479 4.32157 11.4923 4.60091C11.4368 4.88024 11.2996 5.13682 11.0982 5.33821C10.8968 5.5396 10.6402 5.67675 10.3609 5.73231C10.0816 5.78787 9.79204 5.75935 9.52892 5.65036C9.26579 5.54137 9.0409 5.35681 8.88267 5.12C8.72444 4.88319 8.63998 4.60478 8.63998 4.31998C8.64036 3.93818 8.7922 3.57213 9.06217 3.30217C9.33214 3.0322 9.69819 2.88036 10.08 2.87998ZM2.87998 11.52C2.87998 11.2352 2.96444 10.9568 3.12267 10.72C3.2809 10.4831 3.50579 10.2986 3.76892 10.1896C4.03204 10.0806 4.32158 10.0521 4.60091 10.1076C4.88025 10.1632 5.13683 10.3004 5.33822 10.5017C5.5396 10.7031 5.67675 10.9597 5.73231 11.239C5.78788 11.5184 5.75936 11.8079 5.65037 12.071C5.54138 12.3342 5.35681 12.5591 5.12 12.7173C4.8832 12.8755 4.60479 12.96 4.31998 12.96C3.93819 12.9596 3.57214 12.8078 3.30217 12.5378C3.0322 12.2678 2.88036 11.9018 2.87998 11.52ZM2.87998 24.48C2.87998 24.1952 2.96444 23.9168 3.12267 23.68C3.2809 23.4431 3.50579 23.2586 3.76892 23.1496C4.03204 23.0406 4.32158 23.0121 4.60091 23.0676C4.88025 23.1232 5.13683 23.2604 5.33822 23.4617C5.5396 23.6631 5.67675 23.9197 5.73231 24.199C5.78788 24.4784 5.75936 24.7679 5.65037 25.031C5.54138 25.2942 5.35681 25.5191 5.12 25.6773C4.8832 25.8355 4.60479 25.92 4.31998 25.92C3.93819 25.9196 3.57214 25.7678 3.30217 25.4978C3.0322 25.2278 2.88036 24.8618 2.87998 24.48ZM10.08 33.12C9.79518 33.12 9.51677 33.0355 9.27996 32.8773C9.04316 32.7191 8.85859 32.4942 8.7496 32.231C8.64061 31.9679 8.61209 31.6784 8.66765 31.399C8.72321 31.1197 8.86036 30.8631 9.06175 30.6617C9.26314 30.4604 9.51972 30.3232 9.79905 30.2676C10.0784 30.2121 10.3679 30.2406 10.631 30.3496C10.8942 30.4586 11.1191 30.6431 11.2773 30.88C11.4355 31.1168 11.52 31.3952 11.52 31.68C11.5196 32.0618 11.3678 32.4278 11.0978 32.6978C10.8278 32.9678 10.4618 33.1196 10.08 33.12ZM25.92 33.12C25.6352 33.12 25.3568 33.0355 25.12 32.8773C24.8832 32.7191 24.6986 32.4942 24.5896 32.231C24.4806 31.9679 24.4521 31.6784 24.5077 31.399C24.5632 31.1197 24.7004 30.8631 24.9018 30.6617C25.1031 30.4604 25.3597 30.3232 25.6391 30.2676C25.9184 30.2121 26.2079 30.2406 26.471 30.3496C26.7342 30.4586 26.9591 30.6431 27.1173 30.88C27.2755 31.1168 27.36 31.3952 27.36 31.68C27.3595 32.0618 27.2077 32.4278 26.9377 32.6977C26.6678 32.9677 26.3018 33.1195 25.92 33.12ZM31.68 25.92C31.3952 25.92 31.1168 25.8355 30.88 25.6773C30.6432 25.5191 30.4586 25.2942 30.3496 25.031C30.2406 24.7679 30.2121 24.4784 30.2677 24.199C30.3232 23.9197 30.4604 23.6631 30.6618 23.4617C30.8631 23.2604 31.1197 23.1232 31.3991 23.0676C31.6784 23.0121 31.9679 23.0406 32.231 23.1496C32.4942 23.2586 32.7191 23.4431 32.8773 23.68C33.0355 23.9168 33.12 24.1952 33.12 24.48C33.1195 24.8618 32.9677 25.2278 32.6977 25.4977C32.4278 25.7677 32.0618 25.9195 31.68 25.92Z" fill="#24B361"/>
</svg>
