<svg width="237" height="71" viewBox="0 0 237 71" fill="none" xmlns="http://www.w3.org/2000/svg">
<path d="M34.0961 13.1386C31.9514 10.5767 30.134 8.01489 29.7341 7.46593C29.6978 7.42933 29.6251 7.42933 29.5887 7.46593C29.2252 8.01489 27.3714 10.5767 25.2267 13.1386C6.9065 36.6711 28.0984 52.5546 28.0984 52.5546L28.2801 52.6644C28.4255 55.1164 28.8254 58.6299 28.8254 58.6299H29.6251H30.4247C30.4247 58.6299 30.8246 55.1164 30.97 52.6644L31.1517 52.518C31.2244 52.5546 52.4163 36.6711 34.0961 13.1386ZM29.6614 52.1886C29.6614 52.1886 28.7163 51.3835 28.4619 50.9443V50.9077L29.6251 25.2891C29.6251 25.2159 29.7341 25.2159 29.7341 25.2891L30.8973 50.9077V50.9443C30.6428 51.3835 29.6614 52.1886 29.6614 52.1886ZM69.3553 46.9551L60.5223 25.2159L60.4859 25.1427H53.6159V26.6067H54.7427C55.0698 26.6067 55.397 26.753 55.6514 26.9726C55.9059 27.2288 56.0149 27.5216 56.0149 27.8876L55.8332 49.7731C55.8332 50.4685 55.2879 51.0175 54.5973 51.0175L53.4705 51.0541V52.4814H60.1588V51.0541L59.4682 51.0175C58.7775 50.9809 58.2323 50.4319 58.2323 49.7731V29.1685L67.8649 52.518C68.0103 52.8474 68.3375 53.067 68.6646 53.067C69.0281 53.067 69.3553 52.8474 69.4643 52.518L78.8789 29.7175L79.0243 49.8097C79.0243 50.5051 78.479 51.0541 77.7884 51.0907H77.0614V52.518H84.9129V51.0907H83.8588C83.1682 51.0907 82.6229 50.5051 82.6229 49.8463L82.5502 27.9608C82.5502 27.2654 83.0955 26.7164 83.7861 26.6798L84.9493 26.6432V25.1793H78.2609L69.3553 46.9551ZM131.004 50.6881C130.786 50.4685 130.677 50.1757 130.677 49.8097V39.05C130.677 37.0005 130.096 35.3902 128.896 34.2556C127.733 33.1211 126.097 32.5355 124.062 32.5355C121.226 32.5355 118.973 33.7066 117.41 35.9757C117.373 36.0123 117.337 36.0489 117.264 36.0489C117.191 36.0489 117.155 36.0123 117.155 35.9391L116.428 33.0845H115.192L112.03 34.9144V35.9025H112.83C113.193 35.9025 113.52 36.0123 113.738 36.1953C113.956 36.3783 114.065 36.7077 114.065 37.1103V49.7731C114.065 50.1391 113.956 50.4319 113.738 50.6515C113.52 50.8711 113.229 50.9809 112.866 50.9809H112.066V52.4448H119.336V50.9809H118.536C118.173 50.9809 117.882 50.8711 117.664 50.6515C117.446 50.4319 117.337 50.1391 117.337 49.7731V41.3922C117.337 40.3309 117.591 39.2695 118.028 38.2082C118.5 37.1835 119.154 36.3417 120.063 35.6463C120.972 34.9876 122.026 34.6582 123.262 34.6582C124.643 34.6582 125.697 35.0974 126.352 35.9757C127.006 36.8541 127.333 37.9886 127.333 39.3793V49.7731C127.333 50.1391 127.224 50.4319 127.006 50.6515C126.788 50.8711 126.497 50.9809 126.133 50.9809H125.334V52.4448H132.604V50.9809H131.804C131.513 51.0175 131.222 50.9077 131.004 50.6881ZM197.415 26.7896C195.416 25.7283 193.162 25.1427 190.727 25.1427H181.276V26.6067H182.185C182.548 26.6067 182.839 26.753 183.166 27.0824C183.457 27.3752 183.602 27.7046 183.602 28.0706V49.5536C183.602 49.9195 183.457 50.2489 183.166 50.5417C182.875 50.8345 182.548 51.0175 182.185 51.0175H181.276V52.4814H190.727C193.162 52.4814 195.38 51.9324 197.415 50.8345C199.414 49.7731 201.05 48.1628 202.25 46.1133C203.449 44.0639 204.031 41.6118 204.031 38.8304C204.031 36.0489 203.413 33.5969 202.25 31.5474C201.05 29.4979 199.451 27.8876 197.415 26.7896ZM200.251 38.7938C200.251 41.3556 199.814 43.5149 198.906 45.235C198.033 46.9551 196.834 48.2726 195.38 49.1144C193.926 49.9561 192.29 50.3587 190.581 50.3587H188.655C188.291 50.3587 188.001 50.2123 187.674 49.8829C187.383 49.5902 187.237 49.2608 187.237 48.8948V28.6561C187.237 28.2901 187.383 27.9608 187.674 27.668C187.964 27.3752 188.291 27.1922 188.655 27.1922H190.581C192.326 27.1922 193.926 27.5948 195.38 28.4366C196.834 29.2783 198.033 30.5592 198.906 32.3159C199.778 34.0726 200.251 36.2685 200.251 38.7938ZM226.386 40.2577C225.514 39.2329 223.805 38.3912 221.842 37.9154C224.568 36.5247 225.986 34.585 225.986 32.0963C225.986 30.7422 225.623 29.5345 224.896 28.4731C224.169 27.4484 223.151 26.6067 221.879 26.0211C220.57 25.4355 219.08 25.1427 217.371 25.1427H206.648V26.6067H207.484C207.848 26.6067 208.175 26.753 208.466 27.0824C208.756 27.3752 208.938 27.7046 208.938 28.0706V49.5536C208.938 49.9195 208.793 50.2489 208.466 50.5417C208.175 50.8345 207.848 51.0175 207.484 51.0175H206.539V52.4814H218.171C219.952 52.4814 221.588 52.1886 223.078 51.5664C224.568 50.9809 225.768 50.1025 226.604 48.9314C227.476 47.7603 227.913 46.3695 227.913 44.7226C227.985 42.9659 227.44 41.4654 226.386 40.2577ZM213.082 49.9195C212.791 49.6268 212.609 49.2974 212.609 48.9314V39.3061H218.135C220.097 39.3061 221.588 39.8185 222.606 40.8066C223.623 41.7948 224.169 43.1123 224.169 44.686C224.169 45.6376 223.914 46.5891 223.478 47.4309C223.005 48.3092 222.351 49.0046 221.442 49.5536C220.534 50.1025 219.443 50.3587 218.135 50.3587H214.063C213.7 50.3587 213.409 50.2489 213.082 49.9195ZM212.646 37.2566V28.6927C212.646 28.3267 212.791 27.9974 213.118 27.7046C213.409 27.4118 213.736 27.2288 214.1 27.2288H216.717C218.607 27.2288 219.988 27.7046 220.861 28.6195C221.733 29.5711 222.169 30.7422 222.169 32.2427C222.169 33.7432 221.77 34.9876 220.933 35.9025C220.134 36.8175 218.898 37.2566 217.262 37.2566H212.646ZM103.306 33.8164C101.779 32.9747 100.107 32.5355 98.2533 32.5355C96.3994 32.5355 94.691 32.9381 93.2007 33.8164C91.674 34.6582 90.4744 35.8659 89.602 37.403C88.7297 38.9402 88.2571 40.7335 88.2571 42.7097C88.2571 44.686 88.6933 46.4793 89.602 48.0164C90.5108 49.5536 91.674 50.7613 93.2007 51.603C94.7273 52.4448 96.3994 52.884 98.2533 52.884C100.107 52.884 101.816 52.4814 103.306 51.603C104.833 50.7613 106.032 49.5536 106.905 48.0164C107.777 46.4793 108.249 44.686 108.249 42.7097C108.249 40.7335 107.813 38.9402 106.905 37.403C106.032 35.8659 104.833 34.6582 103.306 33.8164ZM104.76 42.7097C104.76 45.1618 104.178 47.1381 102.979 48.5654C101.816 49.9927 100.216 50.7247 98.2533 50.7247C96.2904 50.7247 94.691 49.9927 93.5278 48.5654C92.3283 47.1381 91.7467 45.1618 91.7467 42.7097C91.7467 40.2577 92.3283 38.2814 93.5278 36.8541C94.691 35.4268 96.2904 34.6948 98.2533 34.6948C100.216 34.6948 101.816 35.4268 102.979 36.8541C104.178 38.2814 104.76 40.2577 104.76 42.7097ZM173.17 33.8164C171.643 32.9747 169.971 32.5355 168.117 32.5355C166.3 32.5355 164.555 32.9381 163.065 33.8164C161.538 34.6582 160.339 35.8659 159.466 37.403C158.594 38.9402 158.121 40.7335 158.121 42.7097C158.121 44.686 158.557 46.4793 159.466 48.0164C160.339 49.5536 161.538 50.7613 163.065 51.603C164.591 52.4448 166.264 52.884 168.117 52.884C169.935 52.884 171.68 52.4814 173.17 51.603C174.697 50.7613 175.896 49.5536 176.769 48.0164C177.641 46.4793 178.114 44.686 178.114 42.7097C178.114 40.7335 177.677 38.9402 176.769 37.403C175.896 35.8659 174.66 34.6582 173.17 33.8164ZM174.624 42.7097C174.624 45.1618 174.042 47.1381 172.843 48.5654C171.68 49.9927 170.08 50.7247 168.117 50.7247C166.154 50.7247 164.555 49.9927 163.392 48.5654C162.192 47.1381 161.611 45.1618 161.611 42.7097C161.611 40.2577 162.192 38.2814 163.392 36.8541C164.555 35.4268 166.154 34.6948 168.117 34.6948C170.08 34.6948 171.68 35.4268 172.843 36.8541C174.006 38.2814 174.624 40.2577 174.624 42.7097ZM144.999 32.5355C143.4 32.5355 141.946 32.8649 140.637 33.5603C139.328 34.2556 138.311 35.1706 137.547 36.3417C136.82 37.5128 136.42 38.7938 136.42 40.1845C136.42 41.4288 136.711 42.5634 137.257 43.5881C137.802 44.5762 138.565 45.3814 139.51 46.0768L136.675 49.9561C136.311 50.4319 136.275 51.0907 136.53 51.603C136.82 52.152 137.329 52.4448 137.911 52.4448H138.71C137.911 52.9938 137.293 53.6159 136.857 54.3845C136.348 55.2262 136.093 56.1412 136.093 57.0561C136.093 58.7762 136.857 60.2036 138.347 61.2649C139.801 62.3262 141.873 62.8752 144.49 62.8752C146.308 62.8752 148.016 62.5824 149.579 61.9969C151.178 61.4113 152.451 60.5695 153.396 59.435C154.377 58.3005 154.85 56.9463 154.85 55.4092C154.85 53.7623 154.268 52.6278 152.851 51.4933C151.651 50.5417 149.797 50.0659 147.471 50.0659H139.547C139.51 50.0659 139.51 50.0293 139.51 50.0293C139.51 50.0293 139.474 49.9927 139.51 49.9561L141.582 47.1747C142.127 47.4309 142.636 47.5773 143.109 47.6871C143.581 47.7969 144.127 47.8335 144.708 47.8335C146.38 47.8335 147.871 47.5041 149.179 46.8087C150.488 46.1133 151.542 45.1984 152.305 44.0273C153.069 42.8561 153.432 41.5752 153.432 40.1845C153.432 38.7206 152.705 36.0123 150.779 34.6216C150.779 34.585 150.815 34.585 150.815 34.585L155.068 35.0608V33.0845H148.234C147.253 32.7551 146.162 32.5355 144.999 32.5355ZM147.362 45.052C146.598 45.4546 145.799 45.6742 144.963 45.6742C143.618 45.6742 142.455 45.1984 141.473 44.2469C140.492 43.2953 139.983 41.9412 139.983 40.1845C139.983 38.4278 140.492 37.0371 141.473 36.1221C142.455 35.1706 143.654 34.6948 144.963 34.6948C145.799 34.6948 146.598 34.8778 147.362 35.317C148.125 35.7195 148.743 36.3417 149.216 37.1469C149.688 37.952 149.943 38.9767 149.943 40.1845C149.943 41.3922 149.688 42.417 149.216 43.2221C148.779 44.0273 148.125 44.6494 147.362 45.052ZM141.982 52.4082H147.362C148.852 52.4082 149.797 52.701 150.451 53.3597C151.069 53.9819 151.397 54.8603 151.397 55.8484C151.397 57.3123 150.815 58.5201 149.652 59.3984C148.489 60.3133 146.962 60.7525 145.035 60.7525C143.363 60.7525 141.982 60.3866 140.964 59.6546C139.946 58.9226 139.437 57.8247 139.437 56.434C139.437 55.5556 139.692 54.7505 140.164 54.0185C140.673 53.2865 141.255 52.7742 141.982 52.4082ZM232.02 52.152C231.62 51.9324 231.329 51.6396 231.111 51.2371C230.893 50.8345 230.784 50.4319 230.784 49.9927C230.784 49.5536 230.893 49.1144 231.111 48.7484C231.329 48.3458 231.657 48.053 232.02 47.8335C232.42 47.6139 232.856 47.5041 233.329 47.5041C233.838 47.5041 234.237 47.6139 234.637 47.8335C235.037 48.053 235.328 48.3458 235.546 48.7484C235.764 49.151 235.873 49.5536 235.873 49.9927C235.873 50.4319 235.764 50.8711 235.546 51.2371C235.328 51.6396 235.001 51.9324 234.637 52.152C234.237 52.3716 233.801 52.4814 233.329 52.4814C232.856 52.4814 232.42 52.3716 232.02 52.152ZM234.419 51.8592C234.746 51.6762 235.001 51.4201 235.183 51.0907C235.364 50.7613 235.473 50.3953 235.473 49.9561C235.473 49.5536 235.364 49.1876 235.183 48.8216C235.001 48.4922 234.746 48.236 234.419 48.053C234.092 47.87 233.729 47.7603 233.329 47.7603C232.929 47.7603 232.565 47.87 232.238 48.053C231.911 48.236 231.657 48.4922 231.475 48.8216C231.293 49.151 231.184 49.517 231.184 49.9561C231.184 50.3587 231.293 50.7247 231.475 51.0907C231.657 51.4201 231.911 51.6762 232.238 51.8592C232.565 52.0422 232.929 52.152 233.329 52.152C233.765 52.152 234.128 52.0422 234.419 51.8592ZM232.275 51.1639V50.9809L232.311 50.9443H232.42C232.456 50.9443 232.493 50.9077 232.529 50.9077C232.565 50.8711 232.565 50.8345 232.565 50.7979V48.968C232.565 48.9314 232.529 48.8948 232.529 48.8582C232.493 48.8216 232.456 48.8216 232.42 48.8216H232.311L232.275 48.785V48.6752L232.311 48.6386H233.329C233.62 48.6386 233.838 48.7118 234.019 48.8216C234.201 48.968 234.274 49.151 234.274 49.3706C234.274 49.5536 234.201 49.7365 234.092 49.8463C233.947 49.9927 233.801 50.0659 233.583 50.0659L233.801 50.1391L234.237 50.8711C234.274 50.9443 234.31 50.9443 234.383 50.9443H234.492L234.528 50.9809V51.1639L234.492 51.2005H233.874L233.838 51.1639L233.22 50.1025H233.074V50.7979C233.074 50.8345 233.111 50.8711 233.111 50.9077C233.147 50.9443 233.183 50.9443 233.22 50.9443H233.329L233.365 50.9809V51.1639L233.329 51.2005H232.275V51.1639ZM233.292 49.8829C233.438 49.8829 233.583 49.8463 233.656 49.7365C233.729 49.6633 233.801 49.517 233.801 49.3706C233.801 49.2242 233.765 49.0778 233.692 49.0046C233.62 48.8948 233.51 48.8582 233.365 48.8582H233.292C233.256 48.8582 233.22 48.8948 233.183 48.8948C233.147 48.9314 233.147 48.968 233.147 49.0046V49.8829H233.292Z" fill="#10AA50"/>
</svg>
