<svg width="265" height="50" viewBox="0 0 265 50" fill="none" xmlns="http://www.w3.org/2000/svg">
<path d="M71.2918 25.1608H61.6822V15.4358H71.8135C75.5219 15.4358 77.376 17.0816 77.376 20.3741C77.376 23.5658 75.3471 25.1625 71.2918 25.1625M78.1984 15.3225C76.8734 14.1358 75.0391 13.5425 72.6714 13.5425L58.9097 13.6191V36.8858H61.6822L61.6574 26.9808H71.898C74.4652 26.9808 76.4874 26.3875 77.9623 25.2008C79.4372 24.0141 80.1751 22.3675 80.1751 20.2616C80.1751 18.1558 79.5167 16.51 78.2 15.3225H78.1984ZM96.1455 32C95.8803 32.7611 95.4276 33.4421 94.8296 33.9791C93.5874 35.1991 91.6926 35.8083 89.1437 35.8083C86.8415 35.8083 85.0759 35.225 83.8437 34.03C82.6114 32.835 81.9945 31.2575 81.9945 29.2691C81.9945 28.2341 82.156 27.315 82.4781 26.5133C82.8002 25.7116 83.2681 25.035 83.8809 24.4833C85.1563 23.3141 86.9102 22.7291 89.1445 22.7291C94.0934 22.7291 96.5686 24.9091 96.5686 29.2691C96.5686 30.305 96.4279 31.215 96.1546 32M96.6573 23.4166C94.9679 21.8666 92.4669 21.0833 89.1528 21.0833C86.0225 21.0833 83.6027 21.875 81.8968 23.4583C80.3564 24.8916 79.578 26.825 79.578 29.26C79.578 31.6766 80.373 33.6266 81.963 35.11C82.8408 35.91 83.8636 36.49 85.032 36.8483C86.2005 37.2066 87.5711 37.3858 89.1445 37.3858C92.4405 37.3858 94.9414 36.6191 96.6738 35.0858C98.2141 33.6858 98.9926 31.7525 98.9926 29.2591C98.9926 26.7591 98.2141 24.8091 96.6573 23.4075V23.4166ZM117.624 32.6725C117.624 35.8041 114.835 37.37 109.26 37.37C107.555 37.37 106.119 37.2616 104.953 37.0433C103.787 36.825 102.839 36.4641 102.111 35.9616C101.549 35.5792 101.089 35.0642 100.771 34.4616C100.439 33.845 100.224 33.07 100.125 32.1283L102.719 32.1033C102.719 33.3366 103.173 34.2433 104.081 34.8266C105.056 35.5266 106.781 35.8766 109.26 35.8766C113.157 35.8766 115.106 34.8933 115.106 32.9283C115.106 31.7783 114.444 30.9883 113.145 30.5533C112.88 30.47 111.304 30.2491 108.425 29.8916C105.546 29.5341 103.738 29.2125 103.027 28.9291C101.489 28.3125 100.719 27.2041 100.719 25.6058C100.719 24.0391 101.407 22.8725 102.79 22.1075C103.469 21.7908 104.317 21.5458 105.337 21.37C106.356 21.1941 107.536 21.1075 108.878 21.1075C114.246 21.1075 116.93 22.8025 116.93 26.1908H114.462C114.462 23.8075 112.574 22.6075 108.802 22.6075C106.882 22.6075 105.45 22.8575 104.507 23.3325C103.564 23.8075 103.093 24.5575 103.093 25.5575C103.093 26.4908 103.73 27.1658 105.004 27.5825C105.749 27.7991 107.462 28.0491 110.143 28.3325C112.543 28.5491 114.19 28.8575 115.084 29.2491C116.79 29.9158 117.641 31.0491 117.641 32.6466L117.624 32.6725ZM127.815 36.9166L126.759 37.0666L126.1 37.1166C124.411 37.1166 123.202 36.8708 122.446 36.3775C121.69 35.8841 121.325 35.0216 121.325 33.7941V23.165H118.256V21.6033H121.31L121.335 16.5866H123.7V21.6033H127.819V23.19L123.7 23.165V33.4958C123.7 34.265 123.903 34.7958 124.308 35.0791C124.714 35.3625 125.438 35.5175 126.481 35.5175C126.63 35.5341 126.796 35.5291 126.978 35.5008C127.254 35.4513 127.528 35.3885 127.798 35.3125L127.823 36.8958L127.815 36.9166ZM144.174 33.3916C143.528 33.925 142.793 34.3316 141.966 34.6166C141.138 34.9016 140.187 35.0333 139.112 35.0333C134.165 35.0333 131.692 32.9775 131.692 28.8666C131.692 26.9525 132.325 25.4541 133.591 24.3716C134.857 23.2891 136.638 22.7483 138.939 22.7483C141.255 22.7483 143.013 23.2941 144.212 24.3841C145.411 25.4741 146.012 26.9358 146.012 28.7675C146.012 30.765 145.399 32.305 144.175 33.3866M148.378 21.6075H146.013L145.988 24.2325C144.944 23.1658 144.199 22.4933 143.752 22.21C142.427 21.4766 140.714 21.1116 138.612 21.1116C135.533 21.1116 133.181 21.82 131.559 23.235C130.019 24.535 129.251 26.4158 129.251 28.88C129.251 30.0966 129.445 31.1816 129.834 32.13C130.224 33.0783 130.792 33.8991 131.538 34.565C133.163 35.93 135.459 36.6133 138.428 36.6133C141.992 36.6133 144.52 35.6325 146.014 33.67V36.3866C146.014 38.12 145.471 39.46 144.387 40.41C143.303 41.36 141.519 41.8266 139.036 41.8266C136.7 41.8266 135.038 41.4933 134.045 40.8566C133.299 40.3591 132.786 39.4966 132.504 38.2691H130.07C130.335 39.9833 131.063 41.2233 132.223 41.9883C133.581 42.87 135.866 43.3108 139.096 43.3108C145.274 43.3108 148.371 41 148.371 36.3775V21.6141L148.378 21.6075ZM161.172 23.1516C160.46 23.035 159.799 22.985 159.188 22.985C155.3 22.985 153.356 25.1308 153.356 29.4208V36.8825H151.016L150.991 21.6141L153.357 21.6375V24.3625H153.482C153.879 23.2891 154.508 22.475 155.368 21.9208C156.31 21.3841 157.717 21.1158 159.586 21.1158H161.174V23.1658L161.172 23.1516ZM163.373 28.2833C163.671 26.5483 164.342 25.205 165.383 24.2533C166.062 23.7033 166.832 23.2891 167.691 23.0141C168.551 22.7391 169.513 22.6008 170.596 22.6008C172.698 22.6008 174.406 23.1808 175.747 24.3408C177.089 25.5008 177.745 26.8158 177.745 28.2825L163.373 28.2833ZM177.975 23.5725C177.147 22.7366 176.12 22.1191 174.894 21.7175C173.669 21.3158 172.244 21.1158 170.588 21.1158C167.524 21.1158 165.147 21.8325 163.456 23.2658C161.765 24.6991 160.922 26.6491 160.922 29.1175C160.922 31.5858 161.734 33.5341 163.357 34.9925C165.113 36.5925 167.58 37.3925 170.784 37.3925C172.059 37.3925 173.237 37.2466 174.322 36.9566C175.407 36.6666 176.355 36.255 177.166 35.7233C178.59 34.6941 179.491 33.4233 179.874 31.915H177.317C176.439 34.5258 174.255 35.8316 170.763 35.8316C168.297 35.8316 166.401 35.1933 165.078 33.9166C163.935 32.8225 163.365 31.405 163.365 29.6633H180.228C180.228 27.0733 179.483 25.0425 177.968 23.58L177.975 23.5725Z" fill="white"/>
<path d="M205.226 30.6466C205.226 35.1799 201.593 37.4466 194.326 37.4466C189.973 37.4466 186.794 36.6658 184.792 35.1133C183.152 33.8299 182.334 31.8733 182.334 29.2399H185.259C185.259 33.4716 188.282 35.5874 194.325 35.5874C197.224 35.5874 199.319 35.1541 200.619 34.2891C201.712 33.5241 202.259 32.3249 202.259 30.6941C202.259 29.0791 201.513 27.9474 200.023 27.2974C199.178 26.9474 197.124 26.5058 193.837 25.9741C189.713 25.3408 187.039 24.7091 185.814 24.0766C184.042 23.1433 183.164 21.5624 183.164 19.3316C183.164 17.2508 183.909 15.7024 185.425 14.6866C187.048 13.5716 189.83 13.0133 193.77 13.0133C200.892 13.0133 204.453 15.3933 204.453 20.1533H201.503C201.503 16.5866 198.858 14.8049 193.571 14.8049C190.918 14.8049 188.979 15.1633 187.752 15.8883C186.591 16.6549 186.013 17.7799 186.013 19.2633C186.013 20.8133 186.759 21.9049 188.249 22.5383C189.044 22.9049 191.38 23.4133 195.255 24.0633C198.899 24.6133 201.358 25.2549 202.626 25.9799C204.365 26.8799 205.234 28.4383 205.234 30.6466H205.226ZM228.993 32.9599C227.9 33.8408 226.664 34.5016 225.289 34.9433C223.913 35.3849 222.371 35.6041 220.665 35.6041C217.183 35.6041 214.371 34.6599 212.223 32.7724C210.075 30.8849 209.004 28.3691 209.004 25.2249C209.004 21.9483 210.068 19.3949 212.198 17.5649C214.328 15.7349 217.15 14.8208 220.664 14.8208C224.227 14.8208 227.029 15.7774 229.068 17.6899C230.144 18.6233 230.939 19.7116 231.454 20.9591C231.969 22.2066 232.224 23.6291 232.224 25.2258C232.224 28.4858 231.146 31.0641 228.991 32.9591M230.547 34.5024C232.07 33.4208 233.198 32.1108 233.928 30.5708C234.657 29.0308 235.023 27.2541 235.023 25.2391C235.023 21.6266 233.83 18.7391 231.445 16.5491C230.17 15.3508 228.629 14.4599 226.824 13.8774C225.019 13.2949 222.957 13.0024 220.638 13.0024C216.133 13.0024 212.605 14.1024 210.038 16.2983C207.471 18.4941 206.187 21.4749 206.187 25.2374C206.187 28.8991 207.482 31.8541 210.074 34.1008C212.665 36.3474 216.204 37.4716 220.69 37.4716C222.446 37.4716 223.976 37.3524 225.284 37.1133C226.591 36.8741 227.702 36.5074 228.613 36.0133L232.934 39.0274L234.739 37.3591L230.555 34.5033L230.547 34.5024ZM256.922 36.8833H236.926V13.5833L239.674 13.5333V34.9308H256.939L256.914 36.8758L256.922 36.8833Z" fill="#367FAF"/>
<path d="M39.946 32.9726C40.2243 30.9976 40.1406 30.7076 41.8656 31.0276L42.3045 31.0609C43.6312 31.1125 45.3661 30.8792 46.3855 30.475C48.5801 29.6067 49.8802 28.1567 47.7172 28.5375C42.7815 29.4059 42.442 27.9792 42.442 27.9792C47.6534 21.3834 49.8322 13.01 47.9523 10.96C42.8138 5.37088 33.9446 8.01421 33.7873 8.08338L33.7401 8.09171C32.7645 7.91921 31.6731 7.81671 30.4474 7.80005C28.214 7.76838 26.5196 8.30005 25.2336 9.13088C25.2336 9.13088 9.39485 3.56421 10.1319 16.1309C10.2892 18.8042 14.6245 36.3584 19.7944 31.0559C21.6842 29.1167 23.5111 27.4775 23.5111 27.4775C24.4637 28.0144 25.5543 28.2518 26.6422 28.1592L26.73 28.0951C26.7027 28.3367 26.7134 28.57 26.7656 28.85C25.434 30.1192 25.8248 30.3417 23.1616 30.81C20.4677 31.2834 22.0503 32.1267 23.0838 32.3476C24.3367 32.6142 27.2351 32.9934 29.1937 30.6559L29.1158 30.9225C29.6375 31.2792 29.6028 33.4851 29.6773 35.0617C29.7518 36.6384 29.876 38.1092 30.252 38.9767C30.628 39.8442 31.0735 42.0767 34.5732 41.4384C37.4981 40.9034 39.7349 40.1342 39.9394 32.9759" fill="#231F20"/>
<path d="M39.946 32.9726C40.2243 30.9976 40.1406 30.7076 41.8656 31.0276L42.3045 31.0609C43.6312 31.1125 45.3661 30.8792 46.3855 30.475C48.5801 29.6067 49.8802 28.1567 47.7172 28.5375C42.7815 29.4059 42.442 27.9792 42.442 27.9792C47.6534 21.3834 49.8322 13.01 47.9523 10.96C42.8138 5.37088 33.9446 8.01421 33.7873 8.08338L33.7401 8.09171C32.7645 7.91921 31.6731 7.81671 30.4474 7.80005C28.214 7.76838 26.5196 8.30005 25.2336 9.13088C25.2336 9.13088 9.39485 3.56421 10.1319 16.1309C10.2892 18.8042 14.6245 36.3584 19.7944 31.0559C21.6842 29.1167 23.5111 27.4775 23.5111 27.4775C24.4637 28.0144 25.5543 28.2518 26.6422 28.1592L26.73 28.0951C26.7027 28.3367 26.7134 28.57 26.7656 28.85C25.434 30.1192 25.8248 30.3417 23.1616 30.81C20.4677 31.2834 22.0503 32.1267 23.0838 32.3476C24.3367 32.6142 27.2351 32.9934 29.1937 30.6559L29.1158 30.9225C29.6375 31.2792 29.6028 33.485 29.6773 35.0617C29.7518 36.6384 29.876 38.1092 30.252 38.9767C30.628 39.8442 31.0735 42.0767 34.5732 41.4384C37.4981 40.9034 39.7349 40.1342 39.9394 32.9759" stroke="#231F20" stroke-width="4.108"/>
<path d="M47.7165 28.5366C42.7809 29.405 42.4414 27.9783 42.4414 27.9783C47.6528 21.3816 49.8316 13.0083 47.9517 10.9591C42.8223 5.36996 33.9448 8.01413 33.7875 8.0833L33.7394 8.09163C32.7639 7.91913 31.6724 7.81663 30.446 7.79996C28.2125 7.76913 26.5182 8.29996 25.2329 9.1308C25.2329 9.1308 9.39338 3.56413 10.1304 16.1308C10.2878 18.8041 14.6222 36.3591 19.793 31.0558C21.6828 29.1166 23.5088 27.4775 23.5088 27.4775C24.4614 28.0143 25.552 28.2517 26.6399 28.1591L26.7285 28.095C26.7012 28.3366 26.7136 28.57 26.7641 28.85C25.4325 30.1191 25.8234 30.3416 23.1618 30.81C20.4671 31.2833 22.0504 32.1266 23.0839 32.3475C24.3369 32.6141 27.2353 32.9933 29.1938 30.6558L29.116 30.9225C29.6377 31.2791 30.0046 33.2416 29.9441 35.0225C29.8837 36.8033 29.8414 38.0225 30.253 38.9775C30.6646 39.9325 31.0745 42.0775 34.5758 41.4391C37.5008 40.9041 39.0171 39.5191 39.2274 37.2075C39.3765 35.5641 39.716 35.8075 39.7367 34.3383L40.0083 33.6433C40.3214 31.4158 40.058 30.6975 41.86 31.0316L42.2989 31.065C43.6256 31.1166 45.3613 30.8833 46.3799 30.4791C48.5745 29.6108 49.8746 28.1608 47.7116 28.5416L47.7165 28.5366Z" fill="#417BA2"/>
<path d="M29.4133 29.8142C29.2775 33.9583 29.4465 38.1325 29.9226 39.1475C30.3988 40.1625 31.4166 42.135 34.9179 41.495C37.8428 40.96 38.907 39.925 39.3682 37.64C39.6995 35.9592 40.3644 31.29 40.4481 30.3342M25.2164 9.03584C25.2164 9.03584 9.3578 3.51084 10.1031 16.0833C10.2687 18.7567 14.5949 36.3117 19.7673 31C21.6571 29.0608 23.3655 27.54 23.3655 27.54M33.7875 8.02751C33.2384 8.17417 42.6045 5.10751 47.9269 10.9083C49.8067 12.9583 47.6288 21.3317 42.4165 27.9283" stroke="white" stroke-width="1.369" stroke-linecap="round" stroke-linejoin="round"/>
<path d="M42.4082 27.9275C42.4082 27.9275 42.7394 29.3525 47.6833 28.4841C49.8464 28.1033 48.5446 29.5533 46.3501 30.4225C44.5497 31.135 40.5134 31.3175 40.448 30.3333C40.2782 27.7916 42.5722 28.5641 42.4065 27.9275C42.2575 27.3541 41.2306 26.7916 40.5515 25.3883C39.9594 24.1633 32.4276 14.77 42.6401 16.165C43.0144 16.0983 39.976 7.87829 30.4169 7.74495C20.8579 7.61162 21.1751 17.77 21.1751 17.77" stroke="white" stroke-width="1.369" stroke-linecap="round" stroke-linejoin="bevel"/>
<path d="M26.7383 28.7967C25.4051 30.0658 25.7976 30.2883 23.1343 30.7567C20.4396 31.2317 22.023 32.0733 23.0565 32.2942C24.3095 32.5608 27.2079 32.94 29.1664 30.6008C29.7627 29.8883 29.1631 28.7508 28.3441 28.4625C27.9482 28.3225 27.4191 28.1475 26.7375 28.7958L26.7383 28.7967Z" stroke="white" stroke-width="1.369" stroke-linejoin="round"/>
<path d="M26.6516 28.775C26.5175 28.0283 26.939 27.1417 27.3911 26.1017C28.0702 24.5433 29.637 22.9833 28.3849 18.0375C27.4508 14.3517 21.1827 17.2708 21.1802 17.7708C21.1777 18.2708 21.4634 20.3042 21.075 22.6708C20.5682 25.7608 23.3797 28.3733 26.6168 28.1067" stroke="white" stroke-width="1.369" stroke-linecap="round" stroke-linejoin="round"/>
<path d="M25.1601 17.6941C25.132 17.8649 25.527 18.3191 26.0412 18.3808C26.5555 18.4424 26.9936 18.0858 27.0226 17.9158C27.0515 17.7458 26.6565 17.5574 26.1414 17.4958C25.6263 17.4341 25.1874 17.5241 25.1601 17.6941Z" fill="white" stroke="white" stroke-width="0.456"/>
<path d="M40.8042 17.3466C40.8323 17.5175 40.4381 17.9716 39.923 18.0333C39.4079 18.095 38.969 17.7383 38.9409 17.5666C38.9127 17.395 39.3077 17.2083 39.822 17.1466C40.3363 17.085 40.7743 17.1741 40.8033 17.345L40.8042 17.3466Z" fill="white" stroke="white" stroke-width="0.228"/>
<path d="M42.6427 16.165C42.7271 17.5042 42.3048 18.415 42.251 19.8417C42.1723 21.9134 43.4087 24.2834 41.5454 26.6584" stroke="white" stroke-width="1.369" stroke-linecap="round" stroke-linejoin="round"/>
</svg>
