<svg width="165" height="165" viewBox="0 0 165 165" fill="none" xmlns="http://www.w3.org/2000/svg">
<path d="M128.953 97.3655C128.586 97.3657 128.223 97.2877 127.889 97.1365C127.554 96.9853 127.256 96.7646 127.014 96.4889C124.352 93.4575 121.074 91.0286 117.4 89.3641C113.725 87.6996 109.737 86.8379 105.703 86.8364C99.6703 86.8364 93.6736 88.8164 88.8267 92.4103C88.5549 92.6118 88.246 92.7577 87.9177 92.8397C87.5895 92.9218 87.2482 92.9384 86.9136 92.8886C86.5789 92.8388 86.2573 92.7236 85.9671 92.5495C85.677 92.3754 85.424 92.1459 85.2225 91.8741C85.0211 91.6022 84.8751 91.2933 84.7931 90.965C84.711 90.6368 84.6944 90.2956 84.7442 89.9609C84.794 89.6262 84.9092 89.3046 85.0833 89.0145C85.2574 88.7243 85.4869 88.4713 85.7588 88.2698C91.5392 84.0094 98.5274 81.7028 105.708 81.6853C115.35 81.6853 124.529 85.8412 130.897 93.0858C131.222 93.4594 131.433 93.9186 131.505 94.4088C131.576 94.899 131.505 95.3995 131.3 95.8505C131.096 96.3016 130.765 96.6842 130.349 96.9528C129.933 97.2214 129.448 97.3646 128.953 97.3655Z" fill="#F04C4D"/>
<path d="M69.0783 74.5644C68.6415 74.5645 68.212 74.4535 67.8298 74.2421C67.4477 74.0306 67.1255 73.7255 66.8936 73.3555C66.6617 72.9854 66.5276 72.5625 66.5038 72.1264C66.4801 71.6903 66.5675 71.2553 66.758 70.8623C68.6299 67.0034 69.6047 62.771 69.6094 58.4821C69.6094 53.5115 68.2945 48.6027 65.8144 44.3024C65.6424 44.0091 65.5302 43.6847 65.4841 43.3478C65.4381 43.0109 65.4591 42.6683 65.546 42.3396C65.6329 42.0109 65.784 41.7026 65.9905 41.4325C66.197 41.1624 66.4549 40.9358 66.7494 40.7658C67.0438 40.5958 67.369 40.4857 67.7062 40.4419C68.0433 40.3981 68.3858 40.4214 68.714 40.5105C69.0421 40.5996 69.3494 40.7527 69.6181 40.961C69.8868 41.1693 70.1116 41.4287 70.2797 41.7243C73.0146 46.4675 74.5473 51.8079 74.7441 57.2796C74.9409 62.7513 73.7959 68.188 71.4089 73.1155C71.1948 73.5508 70.8629 73.9174 70.4509 74.1735C70.0389 74.4296 69.5634 74.5651 69.0783 74.5644Z" fill="#499ED7"/>
<path d="M24.8428 133.284L57.8686 70.2384C58.2439 69.522 58.7825 68.9038 59.4409 68.434C60.0993 67.9642 60.859 67.6558 61.6585 67.5338C62.4581 67.4118 63.2752 67.4797 64.0437 67.7319C64.8122 67.984 65.5106 68.4135 66.0825 68.9855L92.6217 95.5247C93.1937 96.0966 93.6231 96.795 93.8753 97.5635C94.1275 98.332 94.1953 99.1491 94.0734 99.9486C93.9514 100.748 93.643 101.508 93.1732 102.166C92.7034 102.825 92.0852 103.363 91.3687 103.739L28.3233 136.764C27.8365 137.02 27.281 137.113 26.7377 137.03C26.1944 136.947 25.6917 136.693 25.3031 136.304C24.9145 135.915 24.6602 135.413 24.5774 134.87C24.4946 134.326 24.5876 133.771 24.8428 133.284Z" fill="#FFCC5C"/>
<path d="M92.6217 95.5247L66.0825 68.9855C65.5106 68.4135 64.8122 67.984 64.0437 67.7319C63.2752 67.4797 62.4581 67.4118 61.6585 67.5338C60.859 67.6558 60.0993 67.9642 59.4409 68.434C58.7825 68.9038 58.2439 69.522 57.8686 70.2384L57.5798 70.7953L67.2375 80.453C68.9535 82.1686 70.2418 84.2638 70.9983 86.5694C71.7548 88.8749 71.9584 91.3261 71.5925 93.7248C71.2265 96.1236 70.3015 98.4026 68.8919 100.378C67.4824 102.353 65.628 103.969 63.4786 105.095L30.592 122.322L24.848 133.284C24.5928 133.771 24.4998 134.326 24.5826 134.87C24.6654 135.413 24.9197 135.915 25.3083 136.304C25.6969 136.693 26.1995 136.947 26.7428 137.03C27.2861 137.113 27.8417 137.02 28.3284 136.764L91.3739 103.739C92.09 103.363 92.7077 102.824 93.177 102.165C93.6463 101.507 93.9542 100.747 94.0756 99.9473C94.1971 99.1477 94.1288 98.3308 93.8762 97.5626C93.6236 96.7943 93.1939 96.0962 92.6217 95.5247Z" fill="#F7B546"/>
<path d="M40.8891 130.18L47.3498 126.797L30.9272 121.667L28.4986 126.307L40.8891 130.18ZM34.9594 113.969L58.0594 121.187L64.5202 117.805L37.3931 109.328L34.9594 113.969ZM41.4202 101.63L75.2245 112.195L81.6853 108.812L43.8539 96.989L41.4202 101.63ZM47.8861 89.2959L92.0906 103.11C92.8091 102.55 93.3619 101.806 93.6898 100.957C94.0178 100.108 94.1084 99.1853 93.952 98.2884L50.3198 84.6553L47.8861 89.2959ZM54.3469 76.9622L83.0156 85.9186L75.1575 78.0656L56.7755 72.3215L54.3469 76.9622Z" fill="#F47423"/>
<path d="M93.9469 98.2885L71.6822 91.3327C71.6873 93.0858 71.4192 94.8183 70.8469 96.4735L92.0906 103.11C92.8125 102.532 93.3281 101.81 93.653 101.021L93.7252 100.841C94.0155 100.023 94.0918 99.1443 93.9469 98.2885ZM64.5202 117.805L48.6647 112.85L42.2039 116.232L58.0594 121.187L59.565 120.399L64.5202 117.805ZM67.2323 80.453C67.4541 80.6748 67.5881 80.9326 67.7892 81.1646L83.0105 85.9238L75.1523 78.0657L60.1528 73.3787L67.2323 80.453ZM28.4986 126.308L40.8891 130.18L47.3498 126.797L31.4944 121.842L30.5869 122.322L28.4986 126.308ZM63.4734 105.095L59.3742 107.245L75.2297 112.2L81.6905 108.818L65.4483 103.744C64.8037 104.208 64.2005 104.713 63.4734 105.095Z" fill="#ED5D25"/>
<path d="M41.25 66.2166C39.7593 66.2111 38.3019 65.7756 37.0526 64.9622C35.8034 64.1489 34.8154 62.9923 34.2073 61.6312C33.5992 60.2702 33.3968 58.7626 33.6244 57.2894C33.852 55.8162 34.5 54.44 35.4905 53.3259C34.2157 51.911 33.5103 50.0741 33.5103 48.1697C33.5103 46.2653 34.2157 44.4283 35.4905 43.0134C34.5 41.8994 33.852 40.5232 33.6244 39.05C33.3968 37.5767 33.5992 36.0691 34.2073 34.7081C34.8154 33.3471 35.8034 32.1905 37.0526 31.3771C38.3019 30.5638 39.7593 30.1282 41.25 30.1228C41.9338 30.1228 42.5895 30.3944 43.073 30.8779C43.5565 31.3614 43.8281 32.0172 43.8281 32.7009C43.8281 33.3847 43.5565 34.0404 43.073 34.5239C42.5895 35.0074 41.9338 35.2791 41.25 35.2791C40.5662 35.2791 39.9105 35.5507 39.427 36.0342C38.9435 36.5177 38.6719 37.1734 38.6719 37.8572C38.6719 38.5409 38.9435 39.1967 39.427 39.6802C39.9105 40.1637 40.5662 40.4353 41.25 40.4353C41.9338 40.4353 42.5895 40.7069 43.073 41.1904C43.5565 41.6739 43.8281 42.3297 43.8281 43.0134C43.8281 43.6972 43.5565 44.3529 43.073 44.8364C42.5895 45.3199 41.9338 45.5916 41.25 45.5916C40.5662 45.5916 39.9105 45.8632 39.427 46.3467C38.9435 46.8302 38.6719 47.4859 38.6719 48.1697C38.6719 48.8534 38.9435 49.5092 39.427 49.9927C39.9105 50.4762 40.5662 50.7478 41.25 50.7478C41.9338 50.7478 42.5895 51.0194 43.073 51.5029C43.5565 51.9864 43.8281 52.6422 43.8281 53.3259C43.8281 54.0097 43.5565 54.6654 43.073 55.1489C42.5895 55.6324 41.9338 55.9041 41.25 55.9041C40.5662 55.9041 39.9105 56.1757 39.427 56.6592C38.9435 57.1427 38.6719 57.7984 38.6719 58.4822C38.6719 59.1659 38.9435 59.8217 39.427 60.3052C39.9105 60.7887 40.5662 61.0603 41.25 61.0603C41.9338 61.0603 42.5895 61.3319 43.073 61.8154C43.5565 62.2989 43.8281 62.9547 43.8281 63.6384C43.8281 64.3222 43.5565 64.9779 43.073 65.4614C42.5895 65.9449 41.9338 66.2166 41.25 66.2166Z" fill="#92CA62"/>
<path d="M41.4202 45.5555C41.918 45.5242 42.3956 45.3472 42.7935 45.0465C43.1914 44.7458 43.492 44.3346 43.658 43.8643C43.1608 43.8975 42.6841 44.0753 42.2865 44.3757C41.889 44.6762 41.5878 45.0862 41.4202 45.5555ZM43.658 33.5518C43.1608 33.585 42.6841 33.7628 42.2865 34.0632C41.889 34.3637 41.5878 34.7737 41.4202 35.243C41.918 35.2117 42.3956 35.0347 42.7935 34.734C43.1914 34.4333 43.492 34.0221 43.658 33.5518ZM36.0938 56.7188C36.0938 54.7388 36.8414 52.9341 38.0686 51.5625C36.7939 50.1476 36.0885 48.3107 36.0885 46.4063C36.0885 44.5019 36.7939 42.6649 38.0686 41.25C36.7606 39.7944 36.0556 37.8956 36.0968 35.9391C36.138 33.9826 36.9223 32.1151 38.2903 30.7158C37.1508 31.1903 36.1413 31.9304 35.3461 32.8745C34.5509 33.8185 33.993 34.9391 33.7189 36.1426C33.4449 37.3461 33.4628 38.5978 33.7709 39.793C34.0791 40.9883 34.6687 42.0925 35.4905 43.0135C34.2147 44.4279 33.5085 46.265 33.5085 48.1697C33.5085 50.0745 34.2147 51.9116 35.4905 53.326C34.5 54.44 33.852 55.8162 33.6244 57.2895C33.3968 58.7627 33.5992 60.2703 34.2073 61.6313C34.8154 62.9923 35.8034 64.1489 37.0526 64.9623C38.3019 65.7756 39.7593 66.2112 41.25 66.2166C41.7894 66.2136 42.3139 66.0399 42.7483 65.7203C43.1828 65.4007 43.5049 64.9517 43.6683 64.4377C41.6475 64.3959 39.7234 63.5648 38.3077 62.1221C36.8921 60.6795 36.0974 58.74 36.0938 56.7188Z" fill="#71BC58"/>
<path d="M41.4202 55.868C41.9171 55.8358 42.3935 55.6583 42.7904 55.3576C43.1873 55.057 43.4872 54.6463 43.6528 54.1768C43.1563 54.2103 42.6805 54.3883 42.2838 54.6888C41.8871 54.9893 41.5869 55.3991 41.4202 55.868Z" fill="#71BC58"/>
<path d="M112.056 71.6771C110.076 71.6771 108.096 70.9243 106.585 69.4187C106.101 68.9353 105.828 68.2793 105.828 67.5952C105.828 66.911 106.099 66.2547 106.582 65.7706C107.066 65.2865 107.722 65.0143 108.406 65.0138C109.09 65.0133 109.746 65.2846 110.23 65.768C110.47 66.0074 110.755 66.1972 111.068 66.3266C111.381 66.456 111.716 66.5225 112.055 66.5223C112.394 66.5221 112.729 66.4551 113.042 66.3252C113.355 66.1954 113.639 66.0052 113.878 65.7655C114.118 65.5258 114.308 65.2413 114.437 64.9282C114.566 64.6151 114.633 64.2797 114.633 63.9409C114.632 63.6022 114.565 63.2668 114.436 62.9539C114.306 62.641 114.115 62.3568 113.876 62.1174C113.634 61.8786 113.443 61.5944 113.312 61.281C113.181 60.9677 113.114 60.6316 113.114 60.2921C113.114 59.9526 113.181 59.6165 113.312 59.3032C113.443 58.9899 113.634 58.7056 113.876 58.4668C114.359 57.9835 115.015 57.712 115.698 57.712C116.382 57.712 117.038 57.9835 117.521 58.4668C118.007 58.9364 118.659 59.1963 119.335 59.1904C120.011 59.1845 120.657 58.9134 121.135 58.4354C121.613 57.9574 121.884 57.3108 121.89 56.6348C121.896 55.9588 121.636 55.3076 121.167 54.8213C120.925 54.5825 120.734 54.2983 120.603 53.985C120.472 53.6716 120.405 53.3355 120.405 52.996C120.405 52.6565 120.472 52.3204 120.603 52.0071C120.734 51.6938 120.925 51.4095 121.167 51.1707C121.65 50.6874 122.306 50.4159 122.989 50.4159C123.673 50.4159 124.329 50.6874 124.812 51.1707C125.304 51.6371 125.957 51.897 126.635 51.897C127.313 51.897 127.965 51.6371 128.458 51.1707C128.698 50.9317 128.888 50.6472 129.018 50.3338C129.147 50.0204 129.212 49.6844 129.21 49.3454C129.212 49.0073 129.146 48.6722 129.017 48.3598C128.887 48.0473 128.697 47.7636 128.458 47.5252C128.218 47.2859 128.028 47.0016 127.898 46.6888C127.768 46.3759 127.701 46.0405 127.701 45.7017C127.701 45.363 127.767 45.0275 127.896 44.7144C128.026 44.4014 128.216 44.1169 128.455 43.8772C128.694 43.6375 128.979 43.4473 129.292 43.3174C129.604 43.1876 129.94 43.1206 130.279 43.1204C130.617 43.1201 130.953 43.1866 131.266 43.316C131.579 43.4454 131.863 43.6352 132.103 43.8746C133.562 45.3338 134.367 47.2777 134.367 49.3454C134.368 51.3232 133.612 53.2264 132.253 54.6633C130.893 56.1001 129.035 56.9613 127.06 57.0695C126.96 58.9719 126.159 60.7699 124.812 62.117C123.465 63.4641 121.667 64.265 119.764 64.3655C119.661 66.2012 118.913 68.011 117.511 69.4084C116.021 70.9243 114.036 71.6771 112.056 71.6771Z" fill="#AE89BE"/>
<path d="M114.727 58.4822C115.148 58.8954 115.699 59.1496 116.287 59.2013C116.875 59.2531 117.462 59.0991 117.949 58.7658C117.81 58.673 117.65 58.6112 117.526 58.4822C117.105 58.069 116.554 57.8149 115.966 57.7632C115.378 57.7114 114.791 57.8654 114.304 58.1986C114.443 58.2915 114.603 58.3585 114.727 58.4822ZM122.018 51.1913C122.446 51.5927 122.997 51.8379 123.581 51.8875C124.166 51.9371 124.751 51.7881 125.24 51.4646C125.096 51.3718 124.941 51.3151 124.817 51.1913C124.396 50.7781 123.845 50.5239 123.257 50.4722C122.669 50.4205 122.082 50.5744 121.595 50.9077C121.734 51.0005 121.894 51.0676 122.018 51.1913ZM107.436 65.7732C107.857 66.1864 108.408 66.4406 108.996 66.4923C109.584 66.544 110.171 66.3901 110.658 66.0568C110.519 65.964 110.359 65.9021 110.235 65.7732C109.813 65.3616 109.261 65.109 108.674 65.0583C108.086 65.0075 107.499 65.1617 107.013 65.4947C107.152 65.5876 107.312 65.6494 107.436 65.7732Z" fill="#9676B5"/>
<path d="M132.108 43.8953C131.686 43.4837 131.134 43.2311 130.547 43.1804C129.959 43.1296 129.372 43.2838 128.886 43.6168C129.025 43.7097 129.185 43.7715 129.308 43.8953C130.768 45.3545 131.572 47.2984 131.572 49.3661C131.574 51.3439 130.817 53.2471 129.458 54.6839C128.099 56.1208 126.24 56.9819 124.266 57.0901C124.165 58.9926 123.364 60.7905 122.017 62.1377C120.67 63.4848 118.872 64.2857 116.97 64.3862C116.866 66.2218 116.119 68.0317 114.716 69.429C113.572 70.5737 112.133 71.1409 110.648 71.4142C111.117 71.5019 111.571 71.6875 112.045 71.6875C114.023 71.6917 115.927 70.9366 117.364 69.578C118.801 68.2195 119.662 66.3611 119.769 64.3862C121.671 64.2835 123.468 63.4818 124.814 62.1351C126.161 60.7885 126.963 58.9918 127.065 57.0901C129.041 56.9832 130.9 56.1224 132.259 54.6853C133.619 53.2482 134.375 51.3443 134.372 49.3661C134.376 48.3497 134.178 47.3426 133.789 46.4034C133.401 45.4642 132.829 44.6116 132.108 43.8953Z" fill="#9676B5"/>
<path d="M83.4023 133.042C82.9549 133.042 82.5152 132.925 82.1265 132.704C81.7377 132.482 81.4133 132.163 81.1852 131.778C80.4185 130.495 80.0409 129.016 80.0981 127.522C80.1553 126.028 80.6449 124.583 81.5074 123.362C82.37 122.14 83.5684 121.196 84.9574 120.642C86.3463 120.089 87.866 119.95 89.332 120.244C89.8838 118.491 91.0594 116.923 92.7609 115.918C94.4573 114.907 96.3755 114.629 98.2008 114.984C98.768 113.164 99.9745 111.638 101.63 110.658C102.502 110.136 103.47 109.793 104.476 109.648C105.483 109.504 106.508 109.562 107.492 109.818C109.493 110.328 111.179 111.592 112.231 113.365C112.404 113.657 112.517 113.98 112.565 114.316C112.613 114.652 112.594 114.993 112.51 115.322C112.425 115.65 112.277 115.959 112.074 116.23C111.87 116.501 111.615 116.73 111.323 116.903C111.032 117.075 110.709 117.189 110.373 117.237C110.037 117.284 109.695 117.266 109.367 117.181C109.038 117.097 108.73 116.949 108.459 116.745C108.187 116.542 107.959 116.287 107.786 115.995C107.529 115.553 107.145 115.198 106.684 114.975C106.223 114.753 105.707 114.673 105.2 114.746C104.694 114.819 104.221 115.042 103.842 115.386C103.463 115.729 103.195 116.179 103.073 116.676C102.989 117.003 102.971 117.344 103.02 117.679C103.068 118.013 103.183 118.335 103.357 118.625C103.64 119.208 103.693 119.877 103.506 120.498C103.32 121.119 102.907 121.647 102.35 121.978C101.792 122.309 101.131 122.419 100.496 122.286C99.8616 122.153 99.3001 121.787 98.9227 121.26C98.5719 120.672 98.003 120.248 97.3402 120.079C96.6774 119.91 95.9747 120.01 95.3855 120.357C94.7982 120.708 94.3737 121.277 94.2046 121.94C94.0355 122.602 94.1356 123.305 94.4831 123.894C94.8318 124.484 94.9321 125.188 94.7619 125.851C94.5918 126.514 94.165 127.083 93.5756 127.432C92.9862 127.78 92.2824 127.881 91.6191 127.71C90.9557 127.54 90.3872 127.113 90.0384 126.524C89.868 126.232 89.6405 125.976 89.3694 125.774C89.0984 125.571 88.7893 125.424 88.4606 125.343C87.9672 125.219 87.448 125.243 86.9683 125.413C86.4886 125.583 86.0699 125.891 85.765 126.298C85.4601 126.706 85.2826 127.194 85.2549 127.702C85.2272 128.211 85.3505 128.716 85.6092 129.154C85.8412 129.544 85.9659 129.989 85.9704 130.443C85.975 130.897 85.8593 131.344 85.6352 131.739C85.4111 132.134 85.0864 132.462 84.6943 132.691C84.3021 132.92 83.8564 133.041 83.4023 133.042Z" fill="#499ED7"/>
<path d="M84.0984 131.783C83.5782 130.91 83.2354 129.943 83.0896 128.937C82.9439 127.931 82.9981 126.907 83.2491 125.922C83.5001 124.937 83.9429 124.011 84.5523 123.198C85.1617 122.385 85.9257 121.7 86.8003 121.182C87.5841 120.713 88.44 120.414 89.3166 120.249C87.4537 119.871 85.517 120.204 83.887 121.182C83.0118 121.698 82.2475 122.383 81.6386 123.196C81.0297 124.009 80.5881 124.935 80.3395 125.921C80.0855 126.905 80.0295 127.93 80.1746 128.937C80.3198 129.943 80.6633 130.911 81.1852 131.783C81.5359 132.369 82.1038 132.793 82.7654 132.962C83.4269 133.131 84.1285 133.032 84.7172 132.686C84.7842 132.65 84.8152 132.583 84.877 132.541C84.5681 132.345 84.3031 132.087 84.0984 131.783ZM92.962 126.519C92.7916 126.226 92.5641 125.971 92.293 125.768C92.022 125.565 91.7129 125.419 91.3842 125.338C91.056 125.253 90.7141 125.234 90.3785 125.283C90.043 125.331 89.7205 125.447 89.43 125.622C89.3785 125.653 89.3475 125.704 89.3011 125.735C89.595 125.941 89.858 126.199 90.0436 126.519C90.3934 127.107 90.9623 127.533 91.6255 127.702C92.2887 127.871 92.9919 127.77 93.5808 127.421C93.6324 127.39 93.6478 127.333 93.6994 127.303C93.4009 127.096 93.1496 126.829 92.962 126.519ZM92.2505 120.249C92.8022 118.496 93.9778 116.928 95.6794 115.923C97.3758 114.912 99.2939 114.634 101.119 114.989C101.532 113.662 102.299 112.473 103.338 111.549C104.376 110.625 105.647 110.001 107.013 109.746C105.156 109.374 103.228 109.705 101.601 110.673C99.9738 111.642 98.7642 113.18 98.2059 114.989C96.3397 114.612 94.4 114.945 92.7661 115.923C91.0645 116.933 89.8941 118.491 89.3424 120.244C90.2911 120.063 91.2708 120.048 92.2505 120.249ZM101.841 121.259C101.49 120.672 100.921 120.248 100.259 120.079C99.5959 119.909 98.8931 120.01 98.3039 120.357C98.2524 120.388 98.2214 120.44 98.175 120.476C98.4689 120.682 98.7267 120.935 98.9227 121.265C99.2723 121.852 99.8407 122.276 100.503 122.444C101.165 122.612 101.867 122.511 102.455 122.162C102.506 122.131 102.522 122.074 102.568 122.043C102.274 121.835 102.026 121.568 101.841 121.259ZM110.705 116C110.533 115.708 110.304 115.454 110.033 115.25C109.762 115.047 109.454 114.9 109.125 114.816C108.797 114.733 108.456 114.715 108.12 114.764C107.785 114.814 107.463 114.929 107.173 115.103C107.121 115.134 107.09 115.185 107.044 115.216C107.338 115.423 107.601 115.68 107.786 116C108.136 116.588 108.705 117.014 109.368 117.183C110.031 117.352 110.735 117.251 111.323 116.902C111.375 116.871 111.401 116.82 111.452 116.789C111.149 116.583 110.894 116.314 110.705 116Z" fill="#2B8EC6"/>
<path d="M77.3438 32.7009C80.1915 32.7009 82.5 30.3924 82.5 27.5447C82.5 24.697 80.1915 22.3884 77.3438 22.3884C74.496 22.3884 72.1875 24.697 72.1875 27.5447C72.1875 30.3924 74.496 32.7009 77.3438 32.7009Z" fill="#AE89BE"/>
<path d="M118.594 32.7009C121.441 32.7009 123.75 30.3924 123.75 27.5447C123.75 24.697 121.441 22.3884 118.594 22.3884C115.746 22.3884 113.438 24.697 113.438 27.5447C113.438 30.3924 115.746 32.7009 118.594 32.7009Z" fill="#499ED7"/>
<path d="M139.219 84.2634C142.066 84.2634 144.375 81.9549 144.375 79.1072C144.375 76.2595 142.066 73.9509 139.219 73.9509C136.371 73.9509 134.062 76.2595 134.062 79.1072C134.062 81.9549 136.371 84.2634 139.219 84.2634Z" fill="#FFCC5C"/>
<path d="M20.625 104.888C23.4727 104.888 25.7812 102.58 25.7812 99.7322C25.7812 96.8845 23.4727 94.5759 20.625 94.5759C17.7773 94.5759 15.4688 96.8845 15.4688 99.7322C15.4688 102.58 17.7773 104.888 20.625 104.888Z" fill="#F04C4D"/>
<path d="M77.3438 22.3884C76.6799 22.3929 76.0233 22.5259 75.4102 22.7803C76.3587 23.1647 77.1709 23.8235 77.7427 24.6723C78.3146 25.5211 78.62 26.5212 78.62 27.5447C78.62 28.5681 78.3146 29.5683 77.7427 30.4171C77.1709 31.2659 76.3587 31.9246 75.4102 32.3091C76.0233 32.5634 76.6799 32.6965 77.3438 32.7009C78.7113 32.7009 80.0228 32.1577 80.9898 31.1907C81.9568 30.2237 82.5 28.9122 82.5 27.5447C82.5 26.1772 81.9568 24.8656 80.9898 23.8987C80.0228 22.9317 78.7113 22.3884 77.3438 22.3884Z" fill="#9676B5"/>
<path d="M118.594 22.3884C117.93 22.3929 117.273 22.5259 116.66 22.7803C117.609 23.1647 118.421 23.8235 118.993 24.6723C119.565 25.5211 119.87 26.5212 119.87 27.5447C119.87 28.5681 119.565 29.5683 118.993 30.4171C118.421 31.2659 117.609 31.9246 116.66 32.3091C117.273 32.5634 117.93 32.6965 118.594 32.7009C119.961 32.7009 121.273 32.1577 122.24 31.1907C123.207 30.2237 123.75 28.9122 123.75 27.5447C123.75 26.1772 123.207 24.8656 122.24 23.8987C121.273 22.9317 119.961 22.3884 118.594 22.3884Z" fill="#2B8EC6"/>
<path d="M139.219 73.9509C138.555 73.9554 137.898 74.0884 137.285 74.3428C138.234 74.7272 139.046 75.386 139.618 76.2348C140.19 77.0836 140.495 78.0837 140.495 79.1072C140.495 80.1306 140.19 81.1308 139.618 81.9796C139.046 82.8284 138.234 83.4871 137.285 83.8716C137.898 84.1259 138.555 84.259 139.219 84.2634C140.586 84.2634 141.898 83.7202 142.865 82.7532C143.832 81.7862 144.375 80.4747 144.375 79.1072C144.375 77.7397 143.832 76.4281 142.865 75.4612C141.898 74.4942 140.586 73.9509 139.219 73.9509Z" fill="#F7B546"/>
<path d="M20.625 94.5759C19.9612 94.5804 19.3046 94.7134 18.6914 94.9678C19.6399 95.3522 20.4521 96.011 21.024 96.8598C21.5958 97.7086 21.9013 98.7087 21.9013 99.7322C21.9013 100.756 21.5958 101.756 21.024 102.605C20.4521 103.453 19.6399 104.112 18.6914 104.497C19.3046 104.751 19.9612 104.884 20.625 104.888C21.9925 104.888 23.304 104.345 24.271 103.378C25.238 102.411 25.7812 101.1 25.7812 99.7322C25.7812 98.3647 25.238 97.0531 24.271 96.0862C23.304 95.1192 21.9925 94.5759 20.625 94.5759Z" fill="#E13340"/>
<path d="M123.75 135.826C126.598 135.826 128.906 133.517 128.906 130.67C128.906 127.822 126.598 125.513 123.75 125.513C120.902 125.513 118.594 127.822 118.594 130.67C118.594 133.517 120.902 135.826 123.75 135.826Z" fill="#F04C4D"/>
<path d="M123.75 125.513C123.086 125.518 122.43 125.651 121.816 125.905C122.765 126.29 123.577 126.948 124.149 127.797C124.721 128.646 125.026 129.646 125.026 130.67C125.026 131.693 124.721 132.693 124.149 133.542C123.577 134.391 122.765 135.05 121.816 135.434C122.43 135.688 123.086 135.821 123.75 135.826C125.118 135.826 126.429 135.283 127.396 134.316C128.363 133.349 128.906 132.037 128.906 130.67C128.906 129.302 128.363 127.991 127.396 127.024C126.429 126.057 125.118 125.513 123.75 125.513Z" fill="#E13340"/>
<path d="M136.233 112.819C135.621 112.818 135.029 112.599 134.563 112.201C134.097 111.803 133.788 111.253 133.691 110.648C133.424 108.969 133.001 107.319 132.428 105.719C132.201 105.073 132.24 104.364 132.536 103.747C132.831 103.13 133.36 102.656 134.006 102.429C134.651 102.202 135.36 102.241 135.977 102.536C136.594 102.832 137.068 103.361 137.295 104.007C137.961 105.902 138.459 107.851 138.786 109.833C138.844 110.202 138.821 110.579 138.72 110.938C138.618 111.297 138.44 111.63 138.197 111.914C137.955 112.198 137.654 112.426 137.315 112.582C136.975 112.738 136.607 112.819 136.233 112.819Z" fill="#F04C4D"/>
<path d="M61.9575 38.0687C61.324 38.0697 60.7124 37.8365 60.2405 37.4139C59.5349 36.785 58.8002 36.1896 58.0387 35.6298C57.5097 35.2161 57.163 34.6124 57.0724 33.947C56.9817 33.2816 57.1542 32.607 57.5533 32.0669C57.9523 31.5268 58.5464 31.1637 59.2091 31.0548C59.8717 30.946 60.5507 31.1 61.1016 31.4842C61.9915 32.1414 62.8501 32.84 63.6745 33.5776C64.0604 33.9263 64.3319 34.3835 64.4532 34.8892C64.5745 35.3949 64.54 35.9255 64.3543 36.4113C64.1686 36.8971 63.8403 37.3153 63.4125 37.6111C62.9848 37.9069 62.4776 38.0664 61.9575 38.0687Z" fill="#499ED7"/>
<path d="M86.5941 76.6116C86.0889 76.6127 85.5946 76.4654 85.1725 76.188C84.7503 75.9105 84.419 75.5152 84.2196 75.0511C84.0202 74.5869 83.9616 74.0745 84.051 73.5773C84.1403 73.0801 84.3738 72.6202 84.7223 72.2546C91.5843 65.0738 95.4049 55.5186 95.3855 45.5864C95.3855 39.7444 94.0294 33.8817 91.4719 28.6378C91.3065 28.332 91.2047 27.9959 91.1726 27.6498C91.1405 27.3036 91.1787 26.9545 91.285 26.6235C91.3913 26.2925 91.5634 25.9864 91.791 25.7236C92.0186 25.4609 92.297 25.2468 92.6095 25.0944C92.922 24.942 93.262 24.8544 93.6092 24.8368C93.9564 24.8192 94.3036 24.872 94.6299 24.992C94.9562 25.1121 95.2548 25.2969 95.5078 25.5353C95.7608 25.7737 95.963 26.0608 96.1022 26.3794C99.014 32.3658 100.53 38.9346 100.537 45.5916C100.558 56.8472 96.2271 67.6753 88.4503 75.8124C88.2126 76.0662 87.925 76.2681 87.6056 76.4057C87.2862 76.5432 86.9418 76.6133 86.5941 76.6116Z" fill="#92CA62"/>
<path d="M41.25 76.5291C42.6739 76.5291 43.8281 75.3748 43.8281 73.9509C43.8281 72.5271 42.6739 71.3728 41.25 71.3728C39.8261 71.3728 38.6719 72.5271 38.6719 73.9509C38.6719 75.3748 39.8261 76.5291 41.25 76.5291Z" fill="#92CA62"/>
</svg>
