<svg width="204" height="102" viewBox="0 0 204 102" fill="none" xmlns="http://www.w3.org/2000/svg">
<path fill-rule="evenodd" clip-rule="evenodd" d="M107.171 36.3086C107.171 37.0699 106.946 37.814 106.523 38.4469C106.1 39.0799 105.499 39.5732 104.796 39.8645C104.092 40.1558 103.318 40.232 102.572 40.0835C101.825 39.935 101.139 39.5684 100.601 39.0302C100.063 38.4919 99.6963 37.8061 99.5478 37.0595C99.3993 36.3129 99.4755 35.539 99.7668 34.8358C100.058 34.1325 100.551 33.5314 101.184 33.1085C101.817 32.6856 102.561 32.4598 103.323 32.4598C103.829 32.4583 104.33 32.5568 104.797 32.7496C105.265 32.9425 105.69 33.2259 106.048 33.5836C106.405 33.9413 106.689 34.3662 106.882 34.8339C107.075 35.3016 107.173 35.8028 107.171 36.3086ZM91.2934 44.0436V44.9956C90.5671 44.2097 89.6789 43.5907 88.6901 43.1813C87.7013 42.7719 86.6355 42.5818 85.5661 42.6241C84.0338 42.6076 82.5141 42.9018 81.0986 43.489C79.6832 44.0761 78.4014 44.944 77.3307 46.0403C76.2599 47.1366 75.4225 48.4385 74.869 49.8674C74.3154 51.2964 74.0572 52.8226 74.1098 54.3541C74.0556 55.8856 74.3122 57.4122 74.8643 58.8417C75.4164 60.2712 76.2525 61.574 77.3221 62.6714C78.3917 63.7688 79.6726 64.6381 81.0875 65.2267C82.5024 65.8153 84.0219 66.111 85.5542 66.096C86.6298 66.1455 87.7028 65.9529 88.6941 65.5325C89.6853 65.112 90.5695 64.4744 91.2815 63.6667V64.6748C91.2799 64.7836 91.3002 64.8915 91.341 64.9923C91.3819 65.093 91.4426 65.1845 91.5195 65.2614C91.5963 65.3383 91.6879 65.399 91.7886 65.4398C91.8894 65.4807 91.9973 65.5009 92.106 65.4993H96.9068V43.18H92.1468C91.9301 43.186 91.7238 43.2748 91.5705 43.4282C91.4171 43.5815 91.3283 43.7878 91.3223 44.0045L91.2934 44.0436ZM91.2934 58.3168C90.7438 59.0741 90.0216 59.6894 89.1867 60.1118C88.3518 60.5343 87.4283 60.7517 86.4926 60.7461C82.7016 60.7461 79.8031 58.3746 79.8031 54.3541C79.8031 50.3336 82.7016 47.9621 86.4926 47.9621C87.426 47.9692 88.3452 48.1922 89.178 48.6136C90.0109 49.035 90.7349 49.6435 91.2934 50.3914V58.3304V58.3168ZM100.473 43.2174H106.202V65.4874H100.473V43.18V43.2174ZM185.417 42.6224C184.348 42.5801 183.282 42.7702 182.293 43.1796C181.305 43.589 180.416 44.208 179.69 44.9939V32.4955H173.961V65.484H178.76C178.977 65.478 179.183 65.3893 179.337 65.2359C179.49 65.0826 179.579 64.8763 179.585 64.6595V63.6514C180.302 64.4499 181.185 65.0813 182.172 65.5011C183.16 65.9208 184.228 66.1187 185.3 66.0807C186.831 66.0925 188.349 65.795 189.762 65.2062C191.175 64.6174 192.455 63.7493 193.525 62.654C194.594 61.5587 195.432 60.2587 195.987 58.832C196.543 57.4052 196.804 55.881 196.756 54.3507C196.806 52.8201 196.545 51.2953 195.99 49.8679C195.436 48.4405 194.598 47.1399 193.528 46.0443C192.458 44.9487 191.177 44.0807 189.764 43.4924C188.35 42.9041 186.831 42.6076 185.3 42.6207L185.417 42.6224ZM184.45 60.69C183.513 60.7033 182.587 60.4892 181.751 60.0661C180.915 59.643 180.194 59.0235 179.649 58.2607V50.32C180.226 49.5922 180.954 48.9981 181.783 48.5787C182.612 48.1594 183.522 47.9246 184.45 47.8907C188.241 47.8907 191.14 50.2622 191.14 54.2827C191.14 58.3032 188.241 60.6747 184.45 60.6747V60.69ZM171.057 52.2818V65.5469H165.328V52.9448C165.328 49.2677 164.183 47.7904 160.942 47.7904C160.069 47.8208 159.212 48.0308 158.424 48.4072C157.636 48.7837 156.933 49.3185 156.361 49.9783V65.4891H150.632V43.18H155.134C155.35 43.186 155.557 43.2748 155.71 43.4282C155.863 43.5815 155.952 43.7878 155.958 44.0045V44.9565C156.749 44.1694 157.692 43.5529 158.731 43.145C159.769 42.7371 160.88 42.5465 161.995 42.585C164.26 42.5013 166.476 43.2602 168.215 44.7151C170.231 46.376 170.998 48.5061 170.998 52.241L171.057 52.2818ZM136.887 42.6258C135.818 42.5835 134.752 42.7736 133.764 43.183C132.775 43.5924 131.887 44.2114 131.16 44.9973V32.4989H125.431V65.484H130.232C130.449 65.478 130.655 65.3893 130.808 65.2359C130.962 65.0826 131.05 64.8763 131.056 64.6595V63.6514C131.775 64.4515 132.66 65.0838 133.65 65.5037C134.639 65.9235 135.709 66.1205 136.784 66.0807C138.315 66.0925 139.832 65.795 141.246 65.2062C142.659 64.6174 143.939 63.7493 145.008 62.654C146.078 61.5587 146.916 60.2587 147.471 58.832C148.026 57.4052 148.288 55.881 148.24 54.3507C148.299 52.8176 148.046 51.2884 147.494 49.8565C146.943 48.4247 146.106 47.1201 145.034 46.0225C143.962 44.9248 142.678 44.0571 141.259 43.4722C139.841 42.8874 138.318 42.5977 136.784 42.6207L136.887 42.6258ZM135.932 60.69C134.995 60.7033 134.069 60.4892 133.233 60.0661C132.397 59.643 131.676 59.0235 131.131 58.2607V50.32C131.708 49.5922 132.436 48.9981 133.265 48.5787C134.094 48.1594 135.004 47.9246 135.932 47.8907C139.723 47.8907 142.622 50.2622 142.622 54.2827C142.622 58.3032 139.723 60.6747 135.932 60.6747V60.69ZM120.496 42.619C121.376 42.5911 122.256 42.6913 123.107 42.9165V48.1865C123.107 48.1865 118.347 46.6174 115.41 49.9613V65.5418H109.681V43.18H114.481C114.698 43.186 114.904 43.2748 115.058 43.4282C115.211 43.5815 115.3 43.7878 115.306 44.0045V44.9565C116.664 43.5453 118.505 42.6984 120.46 42.585L120.496 42.619ZM61.438 63.4695L60.5438 61.3394L59.1804 58.3134L59.1226 58.2556C54.9795 49.2269 50.6172 40.3004 46.0394 31.484L45.8559 31.144L44.4448 28.305C43.8614 27.1427 43.1467 26.051 42.3147 25.0512C41.4095 23.9105 40.2558 22.9915 38.9416 22.3643C37.6273 21.7371 36.1872 21.4182 34.731 21.4319C33.2848 21.4367 31.8569 21.757 30.5471 22.3703C29.2373 22.9837 28.0771 23.8754 27.1473 24.9832C26.3354 25.9976 25.6222 27.0872 25.0172 28.237L23.4141 31.3752C18.8326 40.2662 14.4092 49.2592 10.3207 58.1468L10.2629 58.2607C9.92295 59.2348 9.43845 60.2327 8.95735 61.2969C8.65928 61.9463 8.36122 62.6564 8.06315 63.427C7.30738 65.4676 7.06339 67.6623 7.35255 69.819C7.67132 71.9849 8.54881 74.0304 9.89858 75.754C11.2484 77.4775 13.0238 78.8198 15.0501 79.6484C16.5695 80.2871 18.2028 80.6105 19.8509 80.5987C20.3644 80.5901 20.8769 80.5521 21.386 80.4848C23.4759 80.2183 25.4904 79.5326 27.3088 78.4686C30.0708 76.8214 32.5499 74.7407 34.6511 72.3061C36.7656 74.7273 39.2424 76.8061 41.9934 78.4686C43.8117 79.5329 45.8263 80.2186 47.9162 80.4848C48.4254 80.552 48.9379 80.5901 49.4513 80.5987C51.1 80.6159 52.7344 80.2924 54.2521 79.6484C56.2785 78.8198 58.0539 77.4775 59.4037 75.754C60.7535 74.0304 61.631 71.9849 61.9497 69.819C62.3861 67.6999 62.1989 65.4998 61.4108 63.4848L61.438 63.4695ZM34.7344 66.5516C31.5384 62.5192 29.4644 58.7384 28.7538 55.5305C28.4636 54.3501 28.4013 53.1252 28.5702 51.9214C28.6875 51.0299 29.0131 50.1784 29.5205 49.436C30.1141 48.6125 30.8982 47.9449 31.8059 47.4901C32.7135 47.0354 33.7177 46.8072 34.7327 46.8248C35.7501 46.7857 36.7609 47.0035 37.6718 47.4581C38.5828 47.9127 39.3645 48.5894 39.9449 49.4258C40.4524 50.1682 40.778 51.0197 40.8952 51.9112C41.065 53.115 41.0027 54.3401 40.7116 55.5203C40.001 58.6585 37.9287 62.3934 34.731 66.5414L34.7344 66.5516ZM58.3678 69.3345C58.1451 70.8509 57.53 72.2828 56.5836 73.4884C55.6372 74.6939 54.3922 75.6313 52.972 76.2076C51.5556 76.8067 50.009 77.0315 48.4806 76.8604C46.8905 76.6637 45.3581 76.1412 43.979 75.3253C41.4372 73.7907 39.1589 71.8568 37.2317 69.598C41.1383 64.7972 43.5098 60.418 44.4023 56.5046C44.7877 54.8537 44.8883 53.149 44.6998 51.4641C44.4798 50.0154 43.9315 48.6361 43.0967 47.4317C42.1581 46.0921 40.9044 45.0038 39.4462 44.2627C37.988 43.5216 36.3699 43.1504 34.7344 43.1817C33.1074 43.161 31.4992 43.5321 30.0458 44.2639C28.5923 44.9956 27.3364 46.0664 26.3841 47.3858C25.5493 48.5902 25.0009 49.9695 24.7809 51.4182C24.5306 53.1009 24.6319 54.8172 25.0784 56.4587C25.9726 60.3653 28.4002 64.8091 32.249 69.6099C30.3354 71.8823 28.0548 73.8181 25.5017 75.3372C24.1228 76.1707 22.5859 76.709 20.9882 76.9182C19.4617 77.0877 17.9168 76.8835 16.4866 76.3232C15.0665 75.7469 13.8215 74.8095 12.8751 73.604C11.9287 72.3984 11.3136 70.9665 11.0908 69.4501C10.9036 67.9019 11.0883 66.3312 11.6297 64.8686C11.8133 64.2736 12.0989 63.7228 12.3947 62.9782C12.8078 62.0262 13.2889 61.0198 13.7582 60.0117L13.8159 59.8978C17.9061 51.0578 22.2819 42.0733 26.8549 33.2979L27.025 32.8729L28.4461 30.1461C28.9073 29.2062 29.4804 28.3254 30.1529 27.523C30.7369 26.8369 31.4629 26.2858 32.2808 25.9079C33.0988 25.5299 33.989 25.3342 34.89 25.3342C35.791 25.3342 36.6812 25.5299 37.4992 25.9079C38.3171 26.2858 39.0431 26.8369 39.627 27.523C40.2658 28.3235 40.8079 29.1965 41.242 30.124L42.6632 32.8508L42.8332 33.1908C47.3348 42.024 51.7344 51.0153 55.8127 59.8468V59.9046C56.2819 60.8566 56.7069 61.9208 57.1761 62.8711C57.4736 63.5817 57.7711 64.1767 57.9411 64.7615C58.433 66.2359 58.5744 67.8045 58.3542 69.343L58.3678 69.3345Z" fill="#9A9A9A"/>
</svg>
