<svg width="187" height="94" viewBox="0 0 187 94" fill="none" xmlns="http://www.w3.org/2000/svg">
<mask id="mask0_109_1510" style="mask-type:luminance" maskUnits="userSpaceOnUse" x="32" y="18" width="123" height="57">
<path d="M32.2505 18.3561H154.023V74.9766H32.2505V18.3561Z" fill="white"/>
</mask>
<g mask="url(#mask0_109_1510)">
<path d="M107.28 65.7812H114.127V74.9724H123.895V65.7812H118.239L127.84 53.8724L137.454 65.7812H131.789V74.9724H154.023V65.7812H149.853L134.037 46.1858L149.243 27.3249H154.023V18.3561H131.789V27.327H136.841L127.834 38.5013L118.817 27.3291H123.893V18.3561H107.278V28.3993L121.635 46.1879L107.278 63.9933L107.28 65.7812Z" fill="#9A9A9A"/>
<path d="M107.28 28.3993V18.3561H101.549V27.327H106.412L107.28 28.3993ZM114.125 65.7812H107.278V63.9912L105.834 65.7812H101.549V74.9724H114.123L114.125 65.7812Z" fill="#9A9A9A"/>
<path d="M65.8559 61.5696H73.7521C72.8286 63.875 71.519 66.0042 69.8802 67.8649C68.1899 66.0138 66.8286 63.8843 65.8559 61.5696ZM69.8802 38.2137C67.5875 40.7232 65.9094 43.7361 64.9792 47.0126C65.348 47.7365 65.6478 48.494 65.8747 49.2747H73.6895C73.9242 48.5041 74.2317 47.7578 74.6079 47.0461C73.7327 43.774 72.1143 40.7507 69.8802 38.2137ZM65.8726 49.2726C66.5614 51.6577 66.5816 54.1877 65.931 56.5836H73.6185C72.9361 54.1918 72.9578 51.6523 73.6811 49.2726H65.8726ZM65.8726 49.2726H64.4637C64.0491 51.6908 64.0371 54.1615 64.4282 56.5836H65.931C66.5816 54.1877 66.5614 51.6577 65.8726 49.2726Z" fill="#9A9A9A"/>
<path d="M106.412 27.327H101.549V18.3582H92.3645V27.327H98.2966V35.0598C94.7025 32.4661 90.3849 31.0809 85.9607 31.1021C82.935 31.0983 79.9418 31.729 77.1723 32.9539C74.4027 34.1788 71.9177 35.9709 69.876 38.2158C72.108 40.7533 73.7242 43.7767 74.5975 47.0482C75.6805 44.9906 77.3011 43.2688 79.285 42.0683C81.2688 40.8677 83.5408 40.2337 85.8564 40.2346C92.8905 40.2346 98.2966 45.9675 98.2966 53.0351V53.1044C98.2612 60.1426 92.8697 65.8378 85.8564 65.8378C83.5408 65.8387 81.2688 65.2047 79.285 64.0041C77.3011 62.8035 75.6805 61.0818 74.5975 59.0241C74.1874 58.2477 73.8587 57.4305 73.6165 56.5857H64.4324C64.7095 58.2966 65.1881 59.9682 65.858 61.5654H73.748C72.8245 63.8708 71.5149 66 69.876 67.8607C71.9177 70.1057 74.4027 71.8978 77.1723 73.1227C79.9418 74.3476 82.935 74.9783 85.9607 74.9745C88.8919 74.9895 91.7936 74.3864 94.4786 73.2041C97.1635 72.0218 99.5721 70.2865 101.549 68.1105V65.7854H105.828L107.272 63.9933V28.4014L106.412 27.327ZM98.2987 71.0168V74.9871H101.549V68.1105C100.567 69.1897 99.4772 70.1644 98.2966 71.0189L98.2987 71.0168ZM64.9792 47.0147C64.7674 47.7588 64.596 48.514 64.4658 49.2768H65.8747C65.6478 48.4961 65.348 47.7387 64.9792 47.0147Z" fill="#8A8C8F"/>
<path d="M75.0818 49.2769C74.9593 48.5263 74.799 47.7825 74.6017 47.0483C74.2255 47.76 73.918 48.5062 73.6833 49.2769C72.9599 51.6566 72.9382 54.196 73.6207 56.5879H75.1152C75.4869 54.1643 75.4756 51.6969 75.0818 49.2769ZM54.069 31.1042C43.4614 31.1042 34.39 38.7728 32.5699 49.2769H41.7894C43.4317 43.9015 48.3713 40.2329 53.9646 40.2325C56.2454 40.2232 58.4837 40.8525 60.4288 42.05C62.3739 43.2475 63.9488 44.9659 64.9772 47.0126C65.9072 43.7361 67.5855 40.7232 69.8782 38.2138C67.9 35.9632 65.4659 34.1641 62.7392 32.9371C60.0125 31.7102 57.0563 31.0838 54.069 31.1V31.1042ZM63.2948 61.5738C62.1396 62.9227 60.7069 64.0032 59.0956 64.7409C57.4843 65.4786 55.733 65.8557 53.9625 65.8463C51.2003 65.8471 48.5127 64.9448 46.3052 63.2755C44.0977 61.6062 42.49 59.2604 41.7247 56.5921H64.4282C64.0372 54.1699 64.0492 51.6993 64.4637 49.2811H32.5699C32.1553 51.6993 32.1433 54.1699 32.5344 56.5921C34.2679 67.1935 43.382 74.9739 54.069 74.9746C57.0571 74.9903 60.014 74.3631 62.7412 73.135C65.4683 71.907 67.9024 70.1065 69.8802 67.8545C68.1899 66.0034 66.8287 63.8739 65.8559 61.5591H63.2969L63.2948 61.5738Z" fill="#9A9A9A"/>
</g>
</svg>
