<svg width="191" height="102" viewBox="0 0 191 102" fill="none" xmlns="http://www.w3.org/2000/svg">
<path d="M52.3382 23.1132C49.8026 18.9866 49.199 18.4385 44.0374 18.4385C44.0072 18.4385 44.0072 18.4385 43.977 18.4385C43.9468 18.4385 43.9468 18.4385 43.9166 18.4385C38.755 18.4385 38.1815 18.9866 35.6158 23.1132C33.2312 26.9819 9.56641 73.2774 9.56641 74.567C9.56641 76.4368 10.0192 78.21 11.6492 80.7246C13.3093 83.2715 16.1769 84.6901 18.2596 82.4333C19.6783 80.9181 34.8612 52.9667 42.1961 42.3923C43.0715 41.0704 44.8825 41.0704 45.7881 42.3923C53.123 52.9667 68.3059 80.9181 69.7246 82.4333C71.8073 84.6901 74.6749 83.2715 76.335 80.7246C77.965 78.21 78.4178 76.4368 78.4178 74.567C78.3876 73.2774 54.7228 26.9497 52.3382 23.1132Z" fill="#9A9A9A"/>
<path d="M86.8755 32.6899H105.768V37.704H92.4339V46.2522H103.697V51.2836H92.4339V61.1723H106.24V66.1864H86.8755V32.6899Z" fill="#9A9A9A"/>
<path d="M116.298 53.042L109.826 41.9171L115.825 41.0466C115.825 41.0466 119.818 49.473 120.128 50.0649L124.839 41.0466H130.544L124.122 53.042C123.942 53.3728 123.959 53.7732 124.138 54.0866L131.082 65.49L125.002 66.1864L120.144 56.7677C119.786 57.4815 115.108 66.1864 115.108 66.1864H108.881L116.281 54.1214C116.477 53.7906 116.493 53.3728 116.298 53.042Z" fill="#9A9A9A"/>
<path d="M139.803 68.2233V75.2395L134.293 76.11V41.0293H138.841L139.232 43.693H139.428C140.422 42.8051 141.514 42.039 142.737 41.3949C143.959 40.7507 145.214 40.4199 146.518 40.4199C147.985 40.4199 149.29 40.7159 150.431 41.3078C151.572 41.8998 152.533 42.7702 153.332 43.9019C154.131 45.0335 154.734 46.3741 155.158 47.9409C155.565 49.5078 155.777 51.2662 155.777 53.2161C155.777 55.3749 155.5 57.29 154.946 58.9787C154.392 60.6675 153.642 62.0777 152.713 63.2267C151.783 64.3758 150.708 65.2463 149.501 65.8556C148.279 66.465 147.024 66.7783 145.72 66.7783C144.693 66.7783 143.682 66.5346 142.655 66.0645C141.628 65.5945 140.634 64.8981 139.689 64.0102L139.803 68.2233ZM139.803 59.8318C140.667 60.6153 141.498 61.1724 142.297 61.4683C143.095 61.7817 143.845 61.921 144.546 61.921C146.111 61.921 147.415 61.1898 148.475 59.7448C149.534 58.2998 150.056 56.141 150.056 53.2683C150.056 50.7439 149.648 48.7766 148.849 47.3838C148.051 45.9911 146.763 45.2773 144.97 45.2773C143.307 45.2773 141.579 46.2174 139.786 48.0976V59.8318H139.803Z" fill="#9A9A9A"/>
<path d="M159.07 53.6339C159.07 51.5448 159.379 49.6993 159.982 48.0454C160.586 46.4089 161.417 45.0161 162.444 43.9019C163.487 42.7702 164.677 41.9172 166.014 41.3078C167.35 40.7159 168.768 40.4199 170.235 40.4199C171.702 40.4199 173.12 40.7159 174.473 41.3078C175.826 41.8998 177.016 42.7702 178.043 43.9019C179.07 45.0335 179.885 46.4089 180.505 48.0454C181.124 49.6819 181.434 51.5448 181.434 53.6339C181.434 55.7231 181.124 57.5686 180.505 59.2225C179.885 60.859 179.054 62.2518 178.043 63.366C177.016 64.4976 175.826 65.3507 174.473 65.9252C173.12 66.4998 171.702 66.7957 170.235 66.7957C168.768 66.7957 167.366 66.4998 166.014 65.9252C164.661 65.3507 163.487 64.4976 162.444 63.366C161.401 62.2344 160.586 60.859 159.982 59.2225C159.379 57.5686 159.07 55.7231 159.07 53.6339ZM164.726 53.6339C164.726 56.1584 165.215 58.1779 166.193 59.71C167.171 61.2246 168.524 61.9906 170.252 61.9906C171.979 61.9906 173.332 61.2246 174.327 59.71C175.321 58.1953 175.81 56.1758 175.81 53.6339C175.81 51.0747 175.321 49.0378 174.327 47.5231C173.332 46.0085 171.979 45.2424 170.252 45.2424C168.524 45.2424 167.171 46.0085 166.193 47.5231C165.215 49.0378 164.726 51.0747 164.726 53.6339Z" fill="#9A9A9A"/>
</svg>
