<svg width="195" height="98" viewBox="0 0 195 98" fill="none" xmlns="http://www.w3.org/2000/svg">
<path d="M52.6126 43.2544H32.2676V49.2603H46.6976C45.9826 57.667 38.9415 61.2754 32.292 61.2754C30.1854 61.2846 28.0982 60.8762 26.152 60.0741C24.2059 59.272 22.4398 58.0922 20.957 56.6035C19.4742 55.1149 18.3043 53.3474 17.5157 51.404C16.727 49.4607 16.3354 47.3805 16.3637 45.2849C16.3637 36.1928 23.439 29.1926 32.3115 29.1926C39.156 29.1926 43.1892 33.5334 43.1892 33.5334L47.4142 29.1781C47.4142 29.1781 41.9867 23.1689 32.0905 23.1689C19.4886 23.1689 9.74023 33.75 9.74023 45.1782C9.74023 56.3769 18.9101 67.2975 32.409 67.2975C44.2829 67.2975 52.975 59.2044 52.975 47.2379C52.975 44.7126 52.6061 43.2544 52.6061 43.2544H52.6126Z" fill="#9A9A9A"/>
<path d="M69.2803 38.904C60.931 38.904 54.9478 45.3981 54.9478 52.969C54.9478 60.6546 60.749 67.2684 69.3778 67.2684C77.1875 67.2684 83.5851 61.3304 83.5851 53.1339C83.5851 43.7572 76.1426 38.9023 69.2803 38.9023V38.904ZM69.3615 44.475C73.4663 44.475 77.3565 47.7778 77.3565 53.0983C77.3565 58.304 73.4825 61.7022 69.342 61.7022C64.792 61.7022 61.217 58.0776 61.217 53.0563C61.217 48.1416 64.7595 44.475 69.3745 44.475H69.3615Z" fill="#9A9A9A"/>
<path d="M100.449 38.904C92.1001 38.904 86.1168 45.3981 86.1168 52.969C86.1168 60.6546 91.9181 67.2684 100.547 67.2684C108.357 67.2684 114.754 61.3304 114.754 53.1339C114.754 43.7572 107.312 38.9023 100.449 38.9023V38.904ZM100.531 44.475C104.635 44.475 108.526 47.7778 108.526 53.0983C108.526 58.304 104.652 61.7022 100.511 61.7022C95.9611 61.7022 92.3861 58.0776 92.3861 53.0563C92.3861 48.1416 95.9286 44.475 100.544 44.475H100.531Z" fill="#9A9A9A"/>
<path d="M131.02 38.92C123.357 38.92 117.335 45.5969 117.335 53.0917C117.335 61.6277 124.317 67.2893 130.887 67.2893C134.95 67.2893 137.111 65.684 138.687 63.8426V66.6394C138.687 71.5331 135.7 74.4641 131.193 74.4641C126.838 74.4641 124.654 71.2421 123.88 69.4152L118.401 71.6786C120.344 75.7687 124.257 80.0319 131.238 80.0319C138.876 80.0319 144.664 75.2579 144.664 65.2442V39.772H138.71V42.1744C136.874 40.2021 134.358 38.92 131.024 38.92H131.02ZM131.573 44.4814C135.33 44.4814 139.188 47.6727 139.188 53.1225C139.188 58.6628 135.336 61.715 131.49 61.715C127.405 61.715 123.604 58.417 123.604 53.1742C123.604 47.7293 127.553 44.4814 131.573 44.4814Z" fill="#9A9A9A"/>
<path d="M171.275 38.8861C164.047 38.8861 157.978 44.6091 157.978 53.0481C157.978 61.9818 164.743 67.2796 171.953 67.2796C177.985 67.2796 181.703 63.9978 183.896 61.0555L178.968 57.793C177.689 59.7654 175.55 61.6973 171.984 61.6973C167.976 61.6973 166.134 59.5148 164.991 57.3969L184.106 49.5076L183.131 47.1958C181.285 42.6691 176.976 38.8861 171.275 38.8861ZM171.524 44.3407C174.129 44.3407 176.002 45.7181 176.798 47.3704L164.032 52.6779C163.48 48.5683 167.396 44.3407 171.507 44.3407H171.524Z" fill="#9A9A9A"/>
<path d="M148.85 66.439H155.129V24.6368H148.85V66.439Z" fill="#9A9A9A"/>
</svg>
