<svg width="24" height="24" viewBox="0 0 24 24" fill="none" xmlns="http://www.w3.org/2000/svg">
<g clip-path="url(#clip0_254_396)">
<path d="M23.7139 12.2245C23.7139 11.2413 23.6342 10.5237 23.4615 9.77963H12.2335V14.2176H18.8241C18.6913 15.3205 17.9737 16.9815 16.3792 18.0976L16.3568 18.2461L19.9069 20.9963L20.1529 21.0209C22.4117 18.9347 23.7139 15.8653 23.7139 12.2245Z" fill="#4285F4"/>
<path d="M12.2335 23.9176C15.4623 23.9176 18.1729 22.8545 20.1529 21.0209L16.3792 18.0976C15.3693 18.8018 14.014 19.2934 12.2335 19.2934C9.07109 19.2934 6.38703 17.2074 5.43023 14.324L5.28999 14.3359L1.59857 17.1927L1.55029 17.3269C3.51683 21.2334 7.55625 23.9176 12.2335 23.9176Z" fill="#34A853"/>
<path d="M5.43029 14.324C5.17783 13.5799 5.03173 12.7826 5.03173 11.9588C5.03173 11.1349 5.17783 10.3377 5.41701 9.59359L5.41032 9.43512L1.67264 6.5324L1.55035 6.59057C0.739849 8.21167 0.27478 10.0321 0.27478 11.9588C0.27478 13.8855 0.739849 15.7058 1.55035 17.3269L5.43029 14.324Z" fill="#FBBC05"/>
<path d="M12.2335 4.62403C14.4791 4.62403 15.9938 5.59402 16.8575 6.40461L20.2325 3.10928C18.1598 1.1826 15.4623 0 12.2335 0C7.55625 0 3.51683 2.68406 1.55029 6.59056L5.41695 9.59359C6.38703 6.7102 9.07109 4.62403 12.2335 4.62403Z" fill="#EB4335"/>
</g>
<defs>
<clipPath id="clip0_254_396">
<rect width="23.4528" height="24" fill="white" transform="translate(0.27356)"/>
</clipPath>
</defs>
</svg>
